<?xml version="1.0" encoding="UTF-8"?>
<svg version="1.1" xmlns="http://www.w3.org/2000/svg" width="2102" height="6302">
<path d="M0 0 C1.08023438 -0.01675781 2.16046875 -0.03351563 3.2734375 -0.05078125 C6.50742989 0.29975639 8.66457891 1.20286768 11.57617188 2.56616211 C16.81869796 4.47588592 22.74450966 4.51888536 28.26367188 5.04101562 C35.30121549 5.81785747 39.6378204 6.91329563 44.4375 12.375 C46.75636298 14.42885007 48.14101806 14.89187494 51.0625 15.75 C55.48049733 17.0961645 57.43993186 18.89992699 60.625 22.3125 C62.4636297 23.64667807 64.31964271 24.95705784 66.1875 26.25 C70.41761726 29.26581136 73.30056926 31.66363852 75.625 36.3125 C75.625 36.9725 75.625 37.6325 75.625 38.3125 C76.181875 38.498125 76.73875 38.68375 77.3125 38.875 C81.90771302 41.73148377 84.25315789 45.9180921 85.625 51.0625 C86.26170385 54.48481151 86.26170385 54.48481151 89.0625 55.625 C93.24550932 58.37966467 93.62645131 62.58688422 94.625 67.3125 C95.13225153 70.42084585 95.60427929 73.52389273 96 76.6484375 C96.44224567 79.33623876 96.44224567 79.33623876 98.0625 81.2265625 C102.64714297 87.34706086 101.96417587 95.30824549 102.0390625 102.58984375 C102.06811172 104.33957237 102.06811172 104.33957237 102.0977478 106.12464905 C102.15730104 109.83302608 102.20383229 113.54143456 102.25 117.25 C102.28820206 119.77149756 102.32725508 122.29298238 102.3671875 124.81445312 C102.46298267 130.98035527 102.5481007 137.14633479 102.625 143.3125 C105.14602141 144.5730107 106.96929138 144.47097888 109.7890625 144.5234375 C110.82933594 144.55179688 111.86960937 144.58015625 112.94140625 144.609375 C115.12353867 144.66090115 117.30585177 144.70533103 119.48828125 144.7421875 C127.11014242 144.96718709 133.3924895 145.52078638 139.375 150.6875 C140.48875 151.986875 140.48875 151.986875 141.625 153.3125 C142.32625 154.116875 143.0275 154.92125 143.75 155.75 C145.75016468 158.48355839 147.13843835 161.27474359 148.625 164.3125 C149.61887334 165.65040641 150.6176892 166.98468122 151.625 168.3125 C152.8013649 171.8415947 152.75388928 174.62602966 152.75871277 178.35249329 C152.76097833 179.07361193 152.76324388 179.79473058 152.76557809 180.53770131 C152.77192155 182.9604531 152.7710885 185.38314901 152.77026367 187.8059082 C152.77325498 189.54043653 152.77665744 191.27496419 152.78044128 193.00949097 C152.78928916 197.72651145 152.79161975 202.4435138 152.79225707 207.16054177 C152.79320582 211.09688865 152.7968838 215.03323129 152.80042917 218.96957654 C152.808577 228.25698224 152.81101313 237.54437824 152.81030273 246.83178711 C152.80970209 256.41397391 152.82025042 265.99610439 152.8360464 275.57827693 C152.84912112 283.80256964 152.85448665 292.02684395 152.85384732 300.25114697 C152.85359228 305.1641638 152.85644677 310.07713061 152.86702538 314.9901371 C152.87670499 319.61201572 152.87678645 324.23379649 152.86950874 328.85567856 C152.86846268 330.55118515 152.87082709 332.24669783 152.8768692 333.94219398 C152.88458918 336.25876296 152.87994435 338.57499406 152.87223816 340.89155579 C152.87278293 342.18738744 152.87332769 343.48321909 152.87388897 344.81831837 C152.45054635 350.76167542 150.89562576 354.28114591 146.90234375 358.66796875 C145.46148957 360.52301342 144.70413505 362.33233613 143.8125 364.5 C142.32113588 367.62589919 141.16692642 368.94801781 137.9375 370.25 C130.16472354 372.34934674 122.25657629 372.45959768 114.25311279 372.44621277 C112.74238044 372.4496111 112.74238044 372.4496111 111.20112824 372.45307809 C107.8459877 372.45937864 104.49088797 372.45859127 101.13574219 372.45776367 C98.72204028 372.46075762 96.30833886 372.4641607 93.89463806 372.46794128 C88.03004779 372.47584629 82.16546699 372.4789949 76.30087247 372.47955366 C71.53003018 372.48003011 66.75919117 372.48209128 61.98834991 372.48525429 C48.43900568 372.49405348 34.88966934 372.49867482 21.34032223 372.49792381 C20.61103835 372.49788386 19.88175448 372.4978439 19.13037109 372.49780273 C18.40018879 372.49776185 17.6700065 372.49772097 16.91769746 372.49767885 C5.09006161 372.49727259 -6.73754237 372.506839 -18.56516901 372.5209411 C-30.73236249 372.5353327 -42.89954046 372.54220976 -55.06674266 372.54134732 C-61.8885767 372.54101632 -68.71037734 372.54372111 -75.53220367 372.55452538 C-81.95084644 372.56462658 -88.36943701 372.56426667 -94.78808403 372.55700874 C-97.13696585 372.55596632 -99.48585211 372.55830535 -101.83472633 372.5643692 C-133.43936693 372.64064233 -133.43936693 372.64064233 -140.375 366.3125 C-141.59765625 364.3125 -141.59765625 364.3125 -142.4375 362.3125 C-143.63417057 359.67207304 -144.31853701 358.36398096 -146.5 356.375 C-152.53326904 349.73840405 -150.66418374 337.11762891 -150.6496582 328.64453125 C-150.65401105 326.96324437 -150.6591961 325.28195948 -150.66514587 323.60067749 C-150.67848357 319.05527402 -150.67912053 314.50995397 -150.67658257 309.96453476 C-150.67550959 306.16237252 -150.68040443 302.36022693 -150.685188 298.55806828 C-150.69626447 289.58589992 -150.69673066 280.61377344 -150.69067383 271.64160156 C-150.684631 262.40013576 -150.69695718 253.15882209 -150.7182439 243.91738224 C-150.73587973 235.96722223 -150.74185824 228.01711057 -150.73860615 220.06693172 C-150.73679678 215.32547297 -150.73939522 210.58412284 -150.75332069 205.84268188 C-150.7659272 201.38400015 -150.76392832 196.92555522 -150.75090981 192.46687698 C-150.74855085 190.83551579 -150.75125418 189.20413777 -150.75953293 187.57279587 C-150.84452185 169.51678277 -150.84452185 169.51678277 -145.375 161.3125 C-144.715 161.3125 -144.055 161.3125 -143.375 161.3125 C-143.16875 160.466875 -142.9625 159.62125 -142.75 158.75 C-140.82519882 153.93799706 -138.41675669 149.76547827 -133.59228516 147.4609375 C-127.10143036 144.99721236 -120.75515866 144.80411286 -113.875 144.6875 C-111.71865344 144.63676243 -109.56239034 144.58228997 -107.40625 144.5234375 C-106.46330078 144.50587402 -105.52035156 144.48831055 -104.54882812 144.47021484 C-102.39677711 144.55230571 -102.39677711 144.55230571 -101.375 143.3125 C-101.26736836 141.51938503 -101.22873847 139.7220871 -101.21728516 137.92578125 C-101.20702301 136.77368164 -101.19676086 135.62158203 -101.18618774 134.43457031 C-101.17888641 133.17741211 -101.17158508 131.92025391 -101.1640625 130.625 C-101.14317706 128.65841302 -101.122274 126.69182606 -101.10036278 124.72525024 C-101.04722057 119.86491908 -101.00318056 115.00457553 -100.97363281 110.14404297 C-100.95665335 107.42425566 -100.93187245 104.70474627 -100.89877319 101.98510742 C-100.86795114 99.42418709 -100.84841858 96.86309896 -100.84170532 94.30200195 C-100.61944143 78.50653824 -100.61944143 78.50653824 -95.82901001 73.79052734 C-93.41152255 71.33310783 -93.27194019 67.96580647 -92.625 64.6875 C-91.23473589 58.4169536 -89.46895986 54.18653627 -85.1015625 49.3359375 C-83.2551864 47.17208497 -82.08523646 45.03726172 -80.8125 42.5 C-78.67458317 38.42172962 -76.2836756 36.77666505 -72.375 34.3125 C-71.941875 33.36375 -71.50875 32.415 -71.0625 31.4375 C-68.90495015 27.44203731 -66.29796809 26.08236307 -62.4921875 23.75390625 C-60.17807247 22.36457696 -60.17807247 22.36457696 -58.5625 19.6875 C-55.37396581 16.22566288 -51.57172634 15.66906382 -47.13671875 14.34765625 C-43.6856187 13.0541039 -42.53999812 11.2240492 -40.375 8.3125 C-34.31662471 5.4643263 -27.69965766 4.5866846 -21.125 3.75 C-13.92438222 2.81796737 -7.18247635 0.02559077 0 0 Z M-16.375 49.5 C-17.18855957 49.60078857 -18.00211914 49.70157715 -18.84033203 49.80541992 C-24.26873847 50.64390375 -26.7033685 52.02787667 -30.375 56.3125 C-33.00164257 58.44065566 -35.67647949 60.4915858 -38.36328125 62.54296875 C-39.35908203 63.41888672 -39.35908203 63.41888672 -40.375 64.3125 C-40.375 64.9725 -40.375 65.6325 -40.375 66.3125 C-40.97828125 66.5290625 -41.5815625 66.745625 -42.203125 66.96875 C-45.13436364 68.78232211 -45.78496541 70.66920898 -47.125 73.8125 C-47.55296875 74.7921875 -47.9809375 75.771875 -48.421875 76.78125 C-49.49246309 79.17365946 -49.49246309 79.17365946 -49.375 81.3125 C-51.355 81.8075 -51.355 81.8075 -53.375 82.3125 C-55.49762944 89.23667812 -55.65105371 95.65950248 -55.60546875 102.87109375 C-55.60501053 104.05598892 -55.60455231 105.24088409 -55.6040802 106.46168518 C-55.60107151 108.95192473 -55.59322693 111.44216263 -55.58081055 113.93237305 C-55.56244425 117.76162296 -55.5603018 121.59063232 -55.56054688 125.41992188 C-55.55563538 127.84114794 -55.54980868 130.26237236 -55.54296875 132.68359375 C-55.54185593 133.83452011 -55.5407431 134.98544647 -55.53959656 136.17124939 C-55.53321671 137.22647293 -55.52683685 138.28169647 -55.52026367 139.36889648 C-55.51645187 140.30185043 -55.51264008 141.23480438 -55.50871277 142.19602966 C-55.61006431 144.29780757 -55.61006431 144.29780757 -54.375 145.3125 C-52.99263512 145.41006864 -51.60533189 145.43881631 -50.2195282 145.43948364 C-49.32361969 145.44230347 -48.42771118 145.44512329 -47.50465393 145.44802856 C-46.51400436 145.44600433 -45.5233548 145.4439801 -44.50268555 145.44189453 C-43.46533264 145.44364685 -42.42797974 145.44539917 -41.35919189 145.44720459 C-37.91001745 145.45162659 -34.46089377 145.44868325 -31.01171875 145.4453125 C-28.62376394 145.44598559 -26.23580919 145.44695566 -23.84785461 145.44821167 C-18.83321483 145.44968924 -13.81859281 145.44753276 -8.80395508 145.44287109 C-2.37092767 145.437183 4.06205794 145.44044661 10.49508381 145.44644356 C15.43037735 145.45005545 20.36566098 145.44890752 25.30095482 145.44631577 C27.67286369 145.44564776 30.04477346 145.44647052 32.41668129 145.44879532 C35.73264579 145.45133108 39.0485425 145.44746768 42.36450195 145.44189453 C43.34907883 145.44391876 44.3336557 145.44594299 45.34806824 145.44802856 C46.25243622 145.44520874 47.1568042 145.44238892 48.08857727 145.43948364 C49.26468048 145.4389181 49.26468048 145.4389181 50.46454334 145.43834114 C52.63475023 145.31193207 54.539504 144.91035162 56.625 144.3125 C56.7264521 136.99857434 56.79648763 129.68483026 56.84472656 122.37036133 C56.86483705 119.88233662 56.89212927 117.39435914 56.92675781 114.90649414 C56.97529853 111.32947125 56.99797495 107.75307349 57.015625 104.17578125 C57.03627014 103.06415115 57.05691528 101.95252106 57.07818604 100.8072052 C57.1609006 94.71754255 57.1609006 94.71754255 54.68017578 89.30932617 C53.66286377 88.32089722 53.66286377 88.32089722 52.625 87.3125 C51.80712891 85.35546875 51.80712891 85.35546875 51.3515625 83.5 C51.1659375 82.81679687 50.9803125 82.13359375 50.7890625 81.4296875 C50.43015827 80.02007813 50.07856712 78.60858622 49.734375 77.1953125 C48.22892513 71.73032324 46.1864783 69.65321713 41.625 66.3125 C40.3875 64.7965625 40.3875 64.7965625 39.125 63.25 C36.74610108 60.18287924 36.74610108 60.18287924 33.4375 58.1875 C30.625 56.3125 30.625 56.3125 29.6875 54.265625 C29.336875 53.62109375 28.98625 52.9765625 28.625 52.3125 C25.56046141 51.40820992 22.76223615 50.81231572 19.625 50.3125 C18.12646484 50.0340625 18.12646484 50.0340625 16.59765625 49.75 C5.3789798 47.79183102 -5.13279445 47.94613829 -16.375 49.5 Z " fill="#FFFFFF" transform="translate(350.375,145.6875)"/>
<path d="M0 0 C0.99 0 1.98 0 3 0 C3.59039062 0.75410156 4.18078125 1.50820312 4.7890625 2.28515625 C21.5754102 22.89736765 71.501318 23.30222904 95.59780502 25.80132294 C132.80340855 29.55776124 169.96870012 30.49295826 207.34448242 30.39111328 C213.66715252 30.3740324 219.98944322 30.38420268 226.31210041 30.40143394 C251.17762127 30.45881545 275.966512 30.17848388 300.7890625 28.625 C301.76589933 28.5640855 302.74273617 28.50317101 303.74917412 28.44041061 C337.3493375 26.28668057 372.8654387 23.65377639 405 13 C406.46566406 12.52433594 406.46566406 12.52433594 407.9609375 12.0390625 C418.40245755 8.67326513 418.40245755 8.67326513 426.5625 1.84375 C427.2740625 0.93109375 427.2740625 0.93109375 428 0 C428.99 0 429.98 0 431 0 C432.24867012 19.23298836 428.68374754 37.72793556 425.45213318 56.59657669 C424.68621771 61.09148672 423.94012593 65.58968425 423.19238281 70.08764648 C422.00878845 77.19583549 420.8159285 84.30239516 419.61523438 91.40771484 C417.76894573 102.33943601 415.98176267 113.28034612 414.2102356 124.22442627 C413.4513137 128.90436913 412.68424167 133.58297496 411.91796875 138.26171875 C410.66809168 145.89885528 409.42483985 153.53705008 408.18502808 161.17582703 C407.34962989 166.32088376 406.51227888 171.46562175 405.67468262 176.61032104 C405.26974698 179.10051373 404.86568019 181.59084788 404.46252441 184.08132935 C403.90565772 187.52073664 403.34574983 190.95963599 402.78515625 194.3984375 C402.61889236 195.43019608 402.45262848 196.46195465 402.28132629 197.52497864 C402.12669418 198.46983627 401.97206207 199.41469391 401.81274414 200.38818359 C401.61244347 201.62210342 401.61244347 201.62210342 401.40809631 202.88095093 C401 205 401 205 400 208 C392.59249241 210.98183568 384.78124479 212.53928877 377 214.25 C375.76121094 214.53101563 374.52242188 214.81203125 373.24609375 215.1015625 C372.07175781 215.36195313 370.89742188 215.62234375 369.6875 215.890625 C368.61886719 216.12813477 367.55023438 216.36564453 366.44921875 216.61035156 C365.64097656 216.73893555 364.83273437 216.86751953 364 217 C363 216 363 216 362.87695217 213.78422451 C362.87787396 212.79698422 362.87879576 211.80974394 362.87974548 210.79258728 C362.87768349 209.09928032 362.87768349 209.09928032 362.87557983 207.37176514 C362.87917511 206.12236145 362.88277039 204.87295776 362.88647461 203.58569336 C362.88632858 202.27856888 362.88618256 200.9714444 362.8860321 199.62471008 C362.88574414 196.02982901 362.89164072 192.43498103 362.89860606 188.84010768 C362.90483974 185.08713748 362.90544341 181.3341666 362.90663147 177.58119202 C362.90974474 170.46969174 362.91795808 163.35820675 362.92798096 156.24671322 C362.93914222 148.15252934 362.94465258 140.05834474 362.94967639 131.96415508 C362.96014069 115.30942775 362.97774006 98.65471582 363 82 C361.58679222 82.14915108 361.58679222 82.14915108 360.14503479 82.30131531 C353.20251307 83.0337197 346.25985949 83.76475366 339.31640625 84.48828125 C334.47966319 84.99231277 329.64305081 85.49741928 324.80712891 86.00927734 C320.9042677 86.42230347 317.00090161 86.83021603 313.0971489 87.23472595 C311.61478333 87.38921085 310.13260203 87.5454756 308.65062332 87.70362854 C306.56003694 87.92640977 304.4688589 88.14260187 302.37744141 88.35742188 C301.19163483 88.48177612 300.00582825 88.60613037 298.78408813 88.73425293 C294.19982892 89.05619402 289.59554987 89 285 89 C285 135.2 285 181.4 285 229 C264.27389321 231.30290075 264.27389321 231.30290075 256.43359375 231.6328125 C255.54495132 231.67437469 254.6563089 231.71593689 253.74073792 231.75875854 C251.89540071 231.84376312 250.04993325 231.92598747 248.2043457 232.00537109 C245.43597006 232.12506615 242.66822869 232.25523117 239.90039062 232.38671875 C221.97698391 233.21212503 204.23197478 233.03410508 186.3125 232.1875 C185.38122284 232.14431641 184.44994568 232.10113281 183.490448 232.05664062 C162.87818124 231.08465252 142.34063901 229.6136678 122 226 C119.35687068 216.1913722 117.48696332 206.30023253 115.6875 196.3125 C115.38503529 194.65016395 115.08221419 192.98789272 114.77905273 191.32568359 C114.15809874 187.9172282 113.53943966 184.50836896 112.92285156 181.09912109 C112.02301645 176.1239183 111.11763937 171.14973658 110.2109375 166.17578125 C108.80336184 158.45123149 107.40011635 150.72590578 106 143 C85.04144917 140.53187577 85.04144917 140.53187577 64 139 C63.7328418 140.27689697 63.46568359 141.55379395 63.19042969 142.86938477 C62.04095943 148.03236957 60.53865699 153.04635488 58.953125 158.08984375 C58.65944031 159.03324112 58.36575562 159.97663849 58.06317139 160.94862366 C57.44293488 162.93837644 56.820937 164.92758094 56.19726562 166.91625977 C55.26279915 169.89667796 54.33404086 172.87882597 53.40625 175.86132812 C49.73885903 187.62064217 45.9468843 199.33154497 42 211 C40.54096742 210.69078116 39.08279278 210.37751201 37.625 210.0625 C36.81289062 209.88847656 36.00078125 209.71445313 35.1640625 209.53515625 C33 209 33 209 31 208 C30.27238982 205.19926288 29.67834178 202.45741333 29.1484375 199.6171875 C28.89203995 198.28710159 28.89203995 198.28710159 28.63046265 196.93014526 C26.3799062 185.037668 24.51470046 173.07887053 22.625 161.125 C22.22780598 158.63251283 21.83025947 156.14008181 21.43237305 153.64770508 C19.70444703 142.81043308 17.99233676 131.97069128 16.29296875 121.12890625 C15.79957282 117.98175614 15.30609729 114.83461854 14.8125 111.6875 C14.63462448 110.55243515 14.63462448 110.55243515 14.45315552 109.3944397 C12.85867566 99.23485814 11.18587222 89.09157069 9.4335022 78.95803833 C8.42506186 73.12613921 7.42458321 67.29286369 6.42303467 61.45977783 C6.12867496 59.74819354 5.83357592 58.03673631 5.53790283 56.32537842 C4.54586054 50.58221993 3.56718075 44.83702584 2.60397339 39.08895874 C2.28981694 37.2268987 1.97137967 35.36555474 1.64822388 33.5050354 C-0.23261531 22.66014406 -1.85896227 12.039181 -1 1 C-0.67 0.67 -0.34 0.34 0 0 Z M377.9375 83.125 C376.73090257 86.82523212 377.34653161 88.53559004 379 92 C381.79870027 93.39935013 383.90498792 93.25265405 387 93 C389 92 389 92 390 90 C390.38976435 86.88188517 390.50422245 84.88980433 388.9375 82.125 C384.95133776 79.81045418 381.16796521 79.7966419 377.9375 83.125 Z " fill="#FFFFFF" transform="translate(133,1024)"/>
<path d="M0 0 C2.73145057 2.66316431 3.81729421 4.15955338 4.625 7.875 C3.68911162 12.55444192 1.68698395 15.01529871 -2 18 C-24.01425993 31.08093706 -53.18162942 33.73231188 -78 37 C-79.03592285 37.13792969 -80.0718457 37.27585937 -81.13916016 37.41796875 C-89.7387953 38.52389032 -98.35874354 39.30983424 -107 40 C-107.83428528 40.0678772 -108.66857056 40.13575439 -109.52813721 40.20568848 C-177.72564161 45.67350739 -247.82500197 45.73400592 -316 40 C-316.89505249 39.92503296 -317.79010498 39.85006592 -318.71228027 39.77282715 C-406.73129324 32.26870676 -406.73129324 32.26870676 -425.375 13.625 C-427.35532274 10.42601712 -427.47276373 8.70331585 -427 5 C-424.52452558 -1.47917539 -417.63851619 -3.796138 -411.6953125 -6.5078125 C-388.0245771 -16.06618557 -362.18003913 -19.04044506 -337 -22 C-336.32126831 -22.07992187 -335.64253662 -22.15984375 -334.9432373 -22.2421875 C-324.64694907 -23.43867868 -314.34080817 -24.31356345 -304 -25 C-303.21618958 -25.05220703 -302.43237915 -25.10441406 -301.62481689 -25.15820312 C-212.361185 -30.95335238 -107.9569984 -36.47118265 0 0 Z " fill="#FFFFFF" transform="translate(560,962)"/>
<path d="M0 0 C7.26 0 14.52 0 22 0 C22 39.6 22 79.2 22 120 C10 122 10 122 0 122 C0 81.74 0 41.48 0 0 Z " fill="#FFFFFF" transform="translate(429,1129)"/>
<path d="M0 0 C6.27 0 12.54 0 19 0 C19 22.44 19 44.88 19 68 C4 71 4 71 0 71 C0 47.57 0 24.14 0 0 Z " fill="#FFFFFF" transform="translate(463,1176)"/>
</svg>
