<?xml version="1.0" encoding="UTF-8"?>
<svg version="1.1" xmlns="http://www.w3.org/2000/svg" width="1159" height="1361">
<path d="M0 0 C1.27339233 0.12592529 1.27339233 0.12592529 2.57250977 0.25439453 C29.40564756 3.07648838 56.78376298 6.57457132 82.70703125 14.16015625 C86.43860978 15.2388632 90.18849332 16.05702779 94 16.8125 C100.23596534 18.08705643 106.13951986 19.97546642 112.140625 22.0546875 C115.6156214 23.24505861 119.10525327 24.32568584 122.625 25.375 C127.27177369 26.78997372 131.75696284 28.39738169 136.2421875 30.2578125 C139.12016045 31.43874365 142.02564346 32.53037088 144.9375 33.625 C150.11662 35.61176456 155.22565572 37.72767966 160.3125 39.9375 C160.98297363 40.22665283 161.65344727 40.51580566 162.34423828 40.8137207 C165.10678463 42.0264695 167.75719285 43.27921329 170.34375 44.8359375 C173.38300971 46.65372258 176.55432847 47.92708091 179.8125 49.3125 C182.34235107 50.54940503 184.82991597 51.8586229 187.3125 53.1875 C188.30358765 53.71585449 188.30358765 53.71585449 189.31469727 54.25488281 C192.59759214 56.02994826 195.74922447 57.8309764 198.75 60.0625 C202.29280225 62.66537512 205.84478556 64.43305632 209.8125 66.3125 C209.8125 66.9725 209.8125 67.6325 209.8125 68.3125 C210.46992187 68.51875 211.12734375 68.725 211.8046875 68.9375 C215.96833478 70.84088161 219.33473225 73.51190319 222.9375 76.3125 C223.68942627 76.89193359 224.44135254 77.47136719 225.21606445 78.06835938 C230.56661914 82.23467629 235.63134188 86.59434663 240.58203125 91.23046875 C242.40718093 92.93415488 244.25211992 94.55037087 246.1875 96.125 C249.94368759 99.25515632 253.12976158 102.2670568 255.8125 106.375 C257.60309413 109.34439398 257.60309413 109.34439398 260.0625 111.00390625 C263.62186398 113.99195186 266.10126444 117.43718685 268.8125 121.1875 C269.83176582 122.58187634 270.8525795 123.97512266 271.875 125.3671875 C272.61061157 126.36987671 272.61061157 126.36987671 273.36108398 127.39282227 C274.7226962 129.19372333 276.13627612 130.92418577 277.59765625 132.64453125 C279.90644274 135.42566206 281.22503087 138.07406297 282.8125 141.3125 C284.21538095 143.51394396 285.67762316 145.67012011 287.140625 147.83203125 C301.56696294 169.23559338 313.90837171 193.42875899 322.83203125 217.671875 C323.60318965 219.74877969 324.47186998 221.78948874 325.375 223.8125 C327.1499483 228.13411325 328.44507839 232.54147459 329.78125 237.015625 C330.66582971 239.84359953 331.66258072 242.55887376 332.75 245.3125 C335.71447817 253.27224061 337.3785972 261.62947898 339.25732422 269.89648438 C339.71742128 271.89873614 340.20133675 273.8954976 340.69140625 275.890625 C342.35502921 282.68447792 343.509318 289.48553474 344.54736328 296.39550781 C345.61373142 303.36571489 346.94437976 310.27092025 348.3125 317.1875 C350.04396671 325.98161239 351.53514877 334.75884387 352.71875 343.64257812 C353.41812251 348.80929073 354.28491614 353.90905373 355.29052734 359.0246582 C357.20366919 368.78454506 358.38665682 378.46649561 359.25 388.375 C360.48015137 402.45523433 362.6539045 416.1663067 365.23828125 430.06665039 C365.81753015 433.34093363 366.30867886 436.61948424 366.78515625 439.91015625 C367.71782443 446.09193494 369.11039313 452.07942367 370.6875 458.125 C371.2241618 460.21869786 371.76061973 462.31244798 372.296875 464.40625 C372.68649414 465.91638672 372.68649414 465.91638672 373.08398438 467.45703125 C373.72704086 469.97753684 374.34815746 472.50138575 374.953125 475.03125 C376.57136638 481.78370859 378.38550916 488.31944239 380.8828125 494.8046875 C381.80229269 497.28496599 382.53937227 499.76541857 383.25 502.3125 C384.60615915 506.9886553 386.5490241 511.25460787 388.62109375 515.65234375 C390.01221748 518.75842656 391.04737412 521.89940451 392.0703125 525.140625 C393.10448248 528.16693293 394.44624798 531.02455832 395.77734375 533.9296875 C397.29791127 537.42986178 398.53190531 541.0224334 399.80859375 544.6171875 C400.73816668 547.11292805 401.76604608 549.51719754 402.875 551.9375 C404.47428065 555.45097757 405.73442732 558.96974785 406.91796875 562.640625 C412.09921264 578.1164801 418.45176068 593.24806274 424.71435547 608.30981445 C427.32178504 614.58092725 429.76100476 620.83409399 431.8125 627.3125 C432.225 628.22 432.6375 629.1275 433.0625 630.0625 C433.98508458 632.83025375 433.60378038 634.54301867 432.8125 637.3125 C423.20740841 636.99233028 415.37863739 633.13260568 407.8125 627.3125 C406.843125 626.77625 405.87375 626.24 404.875 625.6875 C401.11501219 623.57763784 397.55638479 621.18215874 394 618.75 C393.42451416 618.36183105 392.84902832 617.97366211 392.25610352 617.57373047 C389.45696037 615.64028889 387.72512323 614.18143484 385.8125 611.3125 C385.049375 610.85875 384.28625 610.405 383.5 609.9375 C380.42124761 608.07592879 378.29048474 605.91438397 375.8125 603.3125 C375.02875 602.52875 374.245 601.745 373.4375 600.9375 C372.57125 600.07125 371.705 599.205 370.8125 598.3125 C370.28785156 597.81105469 369.76320313 597.30960938 369.22265625 596.79296875 C364.30323665 592.0297212 359.75830671 586.91862018 355.8125 581.3125 C355.8125 580.6525 355.8125 579.9925 355.8125 579.3125 C354.8225 578.9825 353.8325 578.6525 352.8125 578.3125 C354.11618272 589.45254877 355.72582201 600.50876387 357.625 611.5625 C357.82050446 612.71218765 357.82050446 612.71218765 358.0199585 613.88510132 C359.50259174 622.56460362 361.09705881 631.12860071 363.4375 639.625 C365.69072797 647.85625314 366.94666198 656.17664255 368.0625 664.625 C368.22572754 665.85323486 368.38895508 667.08146973 368.55712891 668.34692383 C370.42181903 683.15621736 371.04849568 697.90353614 371.0625 712.8125 C371.06383942 713.66656433 371.06517883 714.52062866 371.06655884 715.40057373 C371.06006699 734.79419301 369.73829577 754.02268173 367.8125 773.3125 C367.70035156 774.45428711 367.58820312 775.59607422 367.47265625 776.77246094 C366.09024638 790.15708987 363.09927521 802.85573454 359.48095703 815.80151367 C358.84960232 818.17312916 358.30876725 820.54465232 357.80078125 822.9453125 C356.84698114 827.36525447 355.52248408 831.59875202 354.0625 835.875 C353.80154541 836.64875977 353.54059082 837.42251953 353.27172852 838.21972656 C351.0681836 844.69367152 348.69160294 851.09562495 346.25390625 857.484375 C344.82711232 861.23698618 343.50656204 865.02070085 342.1875 868.8125 C340.64423953 873.17603201 338.95171937 877.2461729 336.77734375 881.32421875 C335.59355891 883.76367821 334.71169523 886.25486688 333.8125 888.8125 C332.41033378 892.78985087 330.8101299 896.46572916 328.85546875 900.1953125 C327.65818668 902.62575025 326.68229017 905.1048649 325.6875 907.625 C323.12958924 913.86724095 320.01270123 919.7330117 316.82666016 925.66894531 C313.54545368 931.81954202 310.5153051 938.06094555 307.5625 944.375 C304.70732827 950.46698347 301.79499401 956.35866383 298.18359375 962.046875 C295.94039465 965.75358576 294.0953795 969.65443733 292.20703125 973.55078125 C289.84404252 978.23042559 287.15740904 982.27554081 283.8125 986.3125 C280.8125 985.3125 280.8125 985.3125 279.74609375 983.76953125 C278.14926639 979.56700234 277.33623361 975.1619139 276.40039062 970.77539062 C275.33464483 965.99014953 273.87613815 961.7631384 271.8125 957.3125 C268.70729582 962.38873803 265.70200679 967.47920959 262.9375 972.75 C250.8620581 995.07698893 231.84199732 1014.29283512 210.8125 1028.3125 C209.8225 1028.3125 208.8325 1028.3125 207.8125 1028.3125 C207.43962071 1019.51254869 209.21588152 1011.48142604 211.03515625 1002.90625 C212.33231968 996.56126772 213.08695558 990.78965167 212.8125 984.3125 C211.8225 984.6425 210.8325 984.9725 209.8125 985.3125 C209.44628216 986.6371786 209.11822454 987.97256665 208.8125 989.3125 C207.4375 991.34765625 207.4375 991.34765625 205.8125 993.375 C203.8694079 995.80853602 202.8112139 997.31635831 201.8125 1000.3125 C201.1525 1000.3125 200.4925 1000.3125 199.8125 1000.3125 C199.51279297 1001.32957031 199.51279297 1001.32957031 199.20703125 1002.3671875 C197.29739712 1006.40042037 194.55955333 1009.22566678 191.5 1012.4375 C190.56438232 1013.42665405 190.56438232 1013.42665405 189.60986328 1014.43579102 C178.00646354 1026.51522016 165.08322398 1036.04863943 150.29296875 1043.9453125 C144.80580421 1046.9697339 140.94087507 1049.76674419 137.8125 1055.3125 C136.17989286 1056.68732707 134.51024938 1058.01897667 132.8125 1059.3125 C129.39108077 1062.63762101 126.14016605 1066.08978875 122.9375 1069.625 C122.06480469 1070.58792969 121.19210937 1071.55085938 120.29296875 1072.54296875 C118.25274742 1074.82094816 116.24344262 1077.11878702 114.25 1079.4375 C110.32776949 1083.95316492 106.07330897 1088.11944241 101.8125 1092.3125 C100.14436036 1093.97769239 98.47799994 1095.64466742 96.8125 1097.3125 C95.39591969 1098.72925302 93.97924361 1100.14591028 92.5625 1101.5625 C91.7890625 1102.3359375 91.015625 1103.109375 90.21875 1103.90625 C87.83333333 1106.29166667 85.44791667 1108.67708333 83.0625 1111.0625 C82.32402832 1111.80169678 81.58555664 1112.54089355 80.82470703 1113.30249023 C79.62034942 1114.50553273 78.41375258 1115.70634925 77.20263672 1116.90258789 C75.29835144 1118.78494082 73.57406279 1120.62246837 71.9375 1122.75 C69.72348741 1125.41983871 67.36854562 1127.50106599 64.69140625 1129.6875 C62.27442553 1131.7778617 60.06874938 1134.0496534 57.8125 1136.3125 C55.72754206 1138.29179089 53.61578661 1140.24125057 51.5 1142.1875 C50.92531982 1142.71706299 50.35063965 1143.24662598 49.75854492 1143.79223633 C46.14738361 1147.11072437 42.50407042 1150.38423881 38.78515625 1153.58203125 C37.24954981 1154.92910779 35.74193059 1156.30811325 34.24609375 1157.69921875 C33.36050781 1158.52035156 32.47492187 1159.34148437 31.5625 1160.1875 C30.75296875 1160.94804688 29.9434375 1161.70859375 29.109375 1162.4921875 C26.8125 1164.3125 26.8125 1164.3125 24.640625 1164.8203125 C24.03734375 1164.98273438 23.4340625 1165.14515625 22.8125 1165.3125 C22.544375 1165.88355469 22.27625 1166.45460938 22 1167.04296875 C20.14658603 1170.58518426 17.03589147 1172.35893452 13.8125 1174.625 C13.13912598 1175.10775391 12.46575195 1175.59050781 11.77197266 1176.08789062 C9.79129029 1177.50448751 7.80278304 1178.9094378 5.8125 1180.3125 C4.80960938 1181.02792969 3.80671875 1181.74335937 2.7734375 1182.48046875 C-4.58284088 1187.69209195 -12.24251936 1192.06331881 -20.1875 1196.3125 C-21.26515625 1196.90804688 -22.3428125 1197.50359375 -23.453125 1198.1171875 C-43.25708596 1208.6521713 -63.80897246 1210.20207526 -85.33984375 1203.93359375 C-95.30534958 1200.75285827 -105.50102618 1196.45225574 -113.546875 1189.63671875 C-115.23595729 1188.20964136 -115.23595729 1188.20964136 -117.5078125 1186.9296875 C-120.60117399 1185.06284835 -123.45602151 1182.95354454 -126.3125 1180.75 C-126.87654541 1180.31598877 -127.44059082 1179.88197754 -128.02172852 1179.43481445 C-132.83922652 1175.67855846 -137.33995147 1171.65810023 -141.81640625 1167.5 C-143.69304251 1165.76867165 -145.58390953 1164.11106603 -147.5625 1162.5 C-151.16190042 1159.50049965 -154.35720006 1156.16408968 -157.625 1152.8125 C-160.1949975 1150.23996981 -160.1949975 1150.23996981 -163.1875 1147.8125 C-169.06922205 1142.91106496 -173.57443437 1137.37475411 -178.1875 1131.3125 C-180.29753653 1128.58186449 -182.34066271 1126.16298402 -184.8125 1123.75 C-186.89731899 1121.61031736 -188.07561642 1120.04166878 -189.1875 1117.3125 C-189.8475 1117.3125 -190.5075 1117.3125 -191.1875 1117.3125 C-192.62299726 1115.71915761 -193.98577327 1114.05998918 -195.3125 1112.375 C-198.89530326 1107.89361586 -202.58313119 1103.56284814 -206.41796875 1099.296875 C-208.74198784 1096.69069023 -210.95781178 1093.99956016 -213.1875 1091.3125 C-214.30871052 1090.01754257 -215.43401585 1088.7261238 -216.5625 1087.4375 C-217.1503125 1086.76460937 -217.738125 1086.09171875 -218.34375 1085.3984375 C-219.60158255 1083.97538119 -220.87309611 1082.56432964 -222.15625 1081.1640625 C-222.7853125 1080.47054688 -223.414375 1079.77703125 -224.0625 1079.0625 C-224.63742187 1078.43859375 -225.21234375 1077.8146875 -225.8046875 1077.171875 C-227.28033896 1075.1876657 -227.64407943 1073.68933015 -228.1875 1071.3125 C-230.03721696 1070.26228897 -230.03721696 1070.26228897 -232.1875 1069.3125 C-234.4375 1067.3125 -234.4375 1067.3125 -236.1875 1065.3125 C-236.1875 1064.6525 -236.1875 1063.9925 -236.1875 1063.3125 C-236.765 1063.065 -237.3425 1062.8175 -237.9375 1062.5625 C-240.51689979 1061.12950012 -242.24871592 1059.52825324 -244.1875 1057.3125 C-244.1875 1056.6525 -244.1875 1055.9925 -244.1875 1055.3125 C-244.765 1055.065 -245.3425 1054.8175 -245.9375 1054.5625 C-248.51689979 1053.12950012 -250.24871592 1051.52825324 -252.1875 1049.3125 C-252.1875 1048.6525 -252.1875 1047.9925 -252.1875 1047.3125 C-254.71688104 1046.04129046 -257.25484693 1044.78861454 -259.796875 1043.54296875 C-272.93129524 1037.07786423 -272.93129524 1037.07786423 -278.546875 1033.37890625 C-280.14802545 1032.33815846 -281.8247188 1031.4166633 -283.5 1030.5 C-288.7027992 1027.56600137 -293.40104401 1023.86795653 -298.1875 1020.3125 C-299.34765625 1019.48298828 -299.34765625 1019.48298828 -300.53125 1018.63671875 C-304.40201301 1015.84197009 -307.31506876 1013.17542477 -310.1875 1009.3125 C-311.83179829 1007.62376121 -313.50134218 1005.95944485 -315.1875 1004.3125 C-316.95581761 1002.54824749 -318.72000805 1000.77992128 -320.484375 999.01171875 C-321.95941445 997.54006242 -323.44731453 996.08131762 -324.9375 994.625 C-327.1875 992.3125 -327.1875 992.3125 -330.1875 988.3125 C-330.1875 996.8925 -330.1875 1005.4725 -330.1875 1014.3125 C-334.1875 1015.3125 -334.1875 1015.3125 -335.828125 1014.34375 C-336.35921875 1013.8384375 -336.8903125 1013.333125 -337.4375 1012.8125 C-338.03175781 1012.26078125 -338.62601563 1011.7090625 -339.23828125 1011.140625 C-340.20314453 1010.23570312 -340.20314453 1010.23570312 -341.1875 1009.3125 C-342.66479669 1008.06029055 -344.14394206 1006.81025855 -345.625 1005.5625 C-347.68359375 1003.828125 -347.68359375 1003.828125 -349.1875 1002.3125 C-349.1875 1001.6525 -349.1875 1000.9925 -349.1875 1000.3125 C-349.7753125 1000.05984375 -350.363125 999.8071875 -350.96875 999.546875 C-356.77014747 996.31933697 -360.67592486 989.7614959 -364.1875 984.3125 C-364.80109375 983.55195312 -365.4146875 982.79140625 -366.046875 982.0078125 C-368.26654239 979.21297582 -370.26784685 976.34250096 -372.25 973.375 C-372.92160156 972.37597656 -373.59320313 971.37695312 -374.28515625 970.34765625 C-376.12784717 967.40767506 -377.65743033 964.42350038 -379.1875 961.3125 C-380.00010295 959.9870653 -380.83144815 958.67279656 -381.6875 957.375 C-383.94685599 953.81785918 -385.57358798 950.21278738 -387.1875 946.3125 C-387.99058834 944.70360098 -388.80389617 943.09977981 -389.625 941.5 C-391.74136525 937.31796089 -393.5383389 933.08727646 -395.23046875 928.71875 C-396.10474399 926.52057224 -397.06129847 924.39248888 -398.0625 922.25 C-400.86633584 915.99279106 -403.01633446 909.49072735 -405.25 903.01464844 C-406.31116097 899.95607303 -407.38968045 896.90386437 -408.46875 893.8515625 C-409.27109963 891.56780187 -410.07318334 889.2839478 -410.875 887 C-411.44577271 885.39137085 -411.44577271 885.39137085 -412.02807617 883.75024414 C-414.18326283 877.57609236 -415.99209812 871.42008481 -417.51489258 865.06079102 C-418.43340599 861.30772188 -419.55274529 857.62953141 -420.6875 853.9375 C-422.5601299 847.70628233 -424.0858044 841.48784844 -425.37109375 835.10546875 C-426.17983851 831.34809476 -427.11148294 827.64203176 -428.07446289 823.92211914 C-430.06842922 816.21937028 -431.68011632 808.69902935 -432.65234375 800.7890625 C-433.66832292 794.18890587 -435.46318898 787.75774022 -437.1875 781.3125 C-438.49460937 782.16521484 -438.49460937 782.16521484 -439.828125 783.03515625 C-459.18315464 795.61277769 -478.13863894 803.67095283 -500.1875 810.3125 C-501.87359375 810.82683594 -501.87359375 810.82683594 -503.59375 811.3515625 C-518.48468626 815.49258129 -533.91781638 815.50785646 -549.25 815.5625 C-550.01184601 815.56776703 -550.77369202 815.57303406 -551.55862427 815.57846069 C-559.94337178 815.62325547 -568.02603707 815.51025018 -576.1875 813.3125 C-576.1875 812.6525 -576.1875 811.9925 -576.1875 811.3125 C-575.630625 811.085625 -575.07375 810.85875 -574.5 810.625 C-571.97806182 809.33519337 -571.97806182 809.33519337 -569.6875 806.75 C-567.32722998 804.44873673 -566.37153225 803.66628136 -563.1875 803.3125 C-563.1875 802.6525 -563.1875 801.9925 -563.1875 801.3125 C-560.98993449 799.60559526 -558.79191885 798.00818564 -556.5 796.4375 C-552.2850439 793.51177352 -548.16492033 790.56061405 -544.1875 787.3125 C-542.81432537 786.24764194 -541.43934005 785.18511449 -540.0625 784.125 C-538.43557077 782.85663741 -536.81066801 781.58567241 -535.1875 780.3125 C-533.95 779.34183594 -533.95 779.34183594 -532.6875 778.3515625 C-519.71023325 767.96202454 -506.49044499 756.49891659 -496.66796875 743.03515625 C-495.93513672 742.18244141 -495.93513672 742.18244141 -495.1875 741.3125 C-494.5275 741.3125 -493.8675 741.3125 -493.1875 741.3125 C-493.01927734 740.43271484 -493.01927734 740.43271484 -492.84765625 739.53515625 C-491.94008061 736.4794726 -490.1945658 734.47446188 -488.24609375 731.99609375 C-486.92135389 730.22067724 -486.92135389 730.22067724 -487.1875 727.3125 C-488.198125 727.89 -489.20875 728.4675 -490.25 729.0625 C-490.89453125 729.42859375 -491.5390625 729.7946875 -492.203125 730.171875 C-493.98273304 731.19479931 -495.74279788 732.25154778 -497.5 733.3125 C-501.86239489 735.80529708 -506.5102342 737.5092168 -511.1875 739.3125 C-511.84991699 739.61067627 -512.51233398 739.90885254 -513.19482422 740.21606445 C-520.13602174 743.23777313 -527.22393935 744.76065695 -534.63720703 746.12280273 C-536.68619366 746.49975967 -538.73175971 746.89214564 -540.77734375 747.28710938 C-550.82544443 749.20154402 -560.58174548 750.50118578 -570.8125 750.375 C-571.53050781 750.37048828 -572.24851562 750.36597656 -572.98828125 750.36132812 C-574.72139208 750.34977405 -576.4544587 750.33185158 -578.1875 750.3125 C-576.65106018 746.35010257 -574.18129115 744.45650202 -570.875 741.875 C-560.30578595 733.58400671 -551.80752015 723.46998853 -544.03515625 712.5859375 C-543.12056641 711.46058594 -543.12056641 711.46058594 -542.1875 710.3125 C-541.5275 710.3125 -540.8675 710.3125 -540.1875 710.3125 C-540.08050781 709.72082031 -539.97351563 709.12914062 -539.86328125 708.51953125 C-539.09954601 706.02525143 -538.15218228 704.88516298 -536.375 703 C-533.83131451 700.29937762 -532.0562718 697.43882049 -530.2565918 694.19750977 C-529.19972966 692.33406319 -528.08173729 690.52997155 -526.92578125 688.7265625 C-518.8651677 676.15068123 -511.41959779 663.34193036 -506.1875 649.3125 C-505.40307795 647.41365767 -504.61088063 645.51801572 -503.8125 643.625 C-503.18214844 642.10519531 -503.18214844 642.10519531 -502.5390625 640.5546875 C-501.60963865 638.32514473 -500.66611198 636.10144528 -499.7109375 633.8828125 C-495.83329033 624.6361154 -493.18831392 615.32903892 -490.79296875 605.60205078 C-490.19714249 603.3489626 -489.49266822 601.15649404 -488.76953125 598.94140625 C-486.2978567 590.82849803 -485.05233348 582.39802405 -483.5625 574.0625 C-483.24790874 572.32803189 -482.93280835 570.59365605 -482.6171875 568.859375 C-481.91361911 564.98260378 -481.2104814 561.10579674 -480.52592468 557.22561646 C-480.2324688 555.56670888 -479.92992066 553.90941461 -479.62573242 552.25244141 C-479.10280695 548.74432523 -478.86477537 545.26708949 -478.65234375 541.7265625 C-478.60936661 541.02477875 -478.56638947 540.322995 -478.52210999 539.59994507 C-478.38679141 537.37929678 -478.25582642 535.158417 -478.125 532.9375 C-478.03349173 531.42315962 -477.94169771 529.90883647 -477.84960938 528.39453125 C-477.62560168 524.70071438 -477.40549516 521.00667714 -477.1875 517.3125 C-486.693019 519.32709275 -486.693019 519.32709275 -496.17578125 521.4453125 C-497.26536133 521.69474609 -497.26536133 521.69474609 -498.37695312 521.94921875 C-499.81257774 522.2793992 -501.24745992 522.61282184 -502.68164062 522.94921875 C-511.22237625 524.89133768 -519.50457387 525.46320057 -528.25 525.375 C-529.11560547 525.37048828 -529.98121094 525.36597656 -530.87304688 525.36132812 C-532.97789539 525.34969913 -535.08270758 525.33177073 -537.1875 525.3125 C-534.31697554 519.43235078 -530.85853097 514.88467232 -526.1875 510.3125 C-525.38044113 509.50988235 -524.57338226 508.70726471 -523.74186707 507.88032532 C-522.88885513 507.03334579 -522.0358432 506.18636627 -521.15698242 505.3137207 C-516.31153177 500.501003 -511.47121053 495.68316096 -506.63376904 490.86239338 C-503.71805195 487.95709306 -500.80049902 485.05368762 -497.87866211 482.15454102 C-495.03492845 479.33273645 -492.19628771 476.50589555 -489.36092567 473.67568016 C-488.28917353 472.60758148 -487.21568339 471.54122339 -486.14031029 470.4767704 C-471.6014468 456.07972437 -466.23964911 447.27624707 -465.29748535 426.90969849 C-465.18495457 424.50817792 -465.06049419 422.10753695 -464.93261719 419.70678711 C-464.60812861 413.60419458 -464.29122379 407.50134493 -464.00195312 401.39697266 C-463.08596139 382.44675042 -460.47181222 364.04555295 -457.22270203 345.38249207 C-456.4425141 340.88293242 -455.75776157 336.38334871 -455.15454102 331.85742188 C-453.75968571 321.65365938 -451.23759768 311.68477591 -448.8125 301.6875 C-448.62336029 300.90544189 -448.43422058 300.12338379 -448.23934937 299.31762695 C-444.56508229 284.20204918 -440.30443168 269.31886079 -435.296875 254.58984375 C-434.66184703 252.71382801 -434.03908876 250.83332117 -433.453125 248.94140625 C-431.44790262 242.47334139 -428.63682605 236.37017664 -425.890625 230.19140625 C-424.51797524 227.09243165 -423.23029639 223.97123717 -422 220.8125 C-420.56452262 217.15019233 -418.92021757 213.66611933 -417.1171875 210.171875 C-416.25231164 208.44212328 -415.49611866 206.6591968 -414.75 204.875 C-413.20887496 201.36123492 -411.46047259 198.09496513 -409.5703125 194.76171875 C-408.09599611 192.15042956 -406.67235356 189.51491799 -405.25 186.875 C-400.04974019 177.34780646 -394.26362556 168.30352363 -388.1875 159.3125 C-387.5275 158.3225 -386.8675 157.3325 -386.1875 156.3125 C-385.5275 156.3125 -384.8675 156.3125 -384.1875 156.3125 C-384.06375 155.714375 -383.94 155.11625 -383.8125 154.5 C-383.1875 152.3125 -383.1875 152.3125 -381.1875 149.3125 C-380.5275 149.3125 -379.8675 149.3125 -379.1875 149.3125 C-378.919375 148.755625 -378.65125 148.19875 -378.375 147.625 C-376.04984908 143.09707452 -373.37841959 139.16473173 -370.125 135.25 C-369.33867187 134.30382812 -368.55234375 133.35765625 -367.7421875 132.3828125 C-366.89914062 131.36960938 -366.05609375 130.35640625 -365.1875 129.3125 C-364.27218711 128.18591058 -363.35814278 127.05828942 -362.4453125 125.9296875 C-361.54701343 124.82801211 -360.64857916 123.72644695 -359.75 122.625 C-358.92628906 121.61050781 -358.10257813 120.59601563 -357.25390625 119.55078125 C-356.57199219 118.81214844 -355.89007813 118.07351562 -355.1875 117.3125 C-354.5275 117.3125 -353.8675 117.3125 -353.1875 117.3125 C-352.92453125 116.73371094 -352.6615625 116.15492188 -352.390625 115.55859375 C-349.06408372 109.34833001 -343.60325451 104.66865037 -338.1875 100.3125 C-336.8571875 98.95125 -336.8571875 98.95125 -335.5 97.5625 C-333.1875 95.3125 -333.1875 95.3125 -330.1875 94.3125 C-329.88457031 93.70664063 -329.58164062 93.10078125 -329.26953125 92.4765625 C-327.90548229 89.74846457 -326.28833144 88.5439088 -323.875 86.6875 C-322.5446875 85.65689453 -322.5446875 85.65689453 -321.1875 84.60546875 C-319.7025 83.47044922 -319.7025 83.47044922 -318.1875 82.3125 C-317.06165713 81.43467369 -315.93668423 80.55573069 -314.8125 79.67578125 C-313.66702173 78.78339821 -312.5211928 77.89146509 -311.375 77 C-310.56712036 76.36940674 -310.56712036 76.36940674 -309.74291992 75.72607422 C-301.42487262 69.3125 -301.42487262 69.3125 -298.1875 69.3125 C-298.1875 68.6525 -298.1875 67.9925 -298.1875 67.3125 C-297.24648438 66.78140625 -296.30546875 66.2503125 -295.3359375 65.703125 C-294.07805828 64.98970096 -292.82024953 64.27615265 -291.5625 63.5625 C-290.94503906 63.21445313 -290.32757813 62.86640625 -289.69140625 62.5078125 C-285.74078879 60.26219836 -281.9663943 57.84041418 -278.1875 55.3125 C-276.57593542 54.39271635 -274.95070899 53.49644344 -273.3125 52.625 C-269.9306693 50.80934499 -266.56775132 48.96924859 -263.234375 47.06640625 C-250.66154754 39.89165473 -250.66154754 39.89165473 -244.0546875 37.13671875 C-241.60768946 36.05655853 -239.35822363 34.67209642 -237.05859375 33.3125 C-234.04952491 31.7043129 -230.88226338 30.53255831 -227.703125 29.3046875 C-225.44953854 28.41585061 -223.26108409 27.45287662 -221.0625 26.4375 C-215.43995551 23.89828636 -209.64324253 21.81668178 -203.859375 19.6796875 C-201.79281053 18.91022201 -199.73295378 18.11953227 -197.703125 17.2578125 C-194.95428002 16.22486143 -192.17405125 15.54538775 -189.32128906 14.86181641 C-187.20635433 14.3173538 -185.15648738 13.6737463 -183.0859375 12.98046875 C-172.76355484 9.56768278 -162.40714511 7.26061769 -151.6875 5.5 C-150.43630371 5.29334717 -149.18510742 5.08669434 -147.89599609 4.8737793 C-134.69578668 2.78884382 -121.91867737 2.22206153 -108.58996582 2.35159302 C-92.22328249 2.49602265 -76.06481597 1.99518539 -59.7421875 0.82421875 C-52.02028151 0.27408556 -44.29911629 -0.05291222 -36.5625 -0.3125 C-34.84788574 -0.37232056 -34.84788574 -0.37232056 -33.09863281 -0.43334961 C-22.06177244 -0.78422777 -11.00104914 -1.11939254 0 0 Z " fill="#000000" transform="translate(644.1875,97.6875)"/>
<path d="M0 0 C9.95335228 9.72187897 10.81228375 29.47982606 11.79296875 42.640625 C11.87783035 43.77373108 11.96269196 44.90683716 12.05012512 46.07427979 C12.88979386 58.17978765 12.94780104 70.24609071 12.875 82.375 C12.86735585 84.84252809 12.86012712 87.31005749 12.85327148 89.77758789 C12.73571288 121.82799341 12.27792761 153.87746033 11.78872108 185.92398357 C11.7138337 190.83827708 11.64280368 195.75260654 11.57421875 200.66699219 C11.4917107 206.54150373 11.40079746 212.41581427 11.30172729 218.29006958 C11.26821543 220.32915316 11.23707877 222.36827772 11.20877075 224.40744019 C11.02558117 237.29839055 10.2674512 250.0639594 9.16674805 262.90893555 C8.67574472 268.64328908 8.31806659 274.37424636 8.00463867 280.12109375 C7.27710291 293.38868371 6.29818369 306.64035007 5.11639404 319.875 C4.95689165 321.69207711 4.80461599 323.5098047 4.65997314 325.328125 C4.45426434 327.88774129 4.22081287 330.44343237 3.98046875 333 C3.92512466 333.75394043 3.86978058 334.50788086 3.8127594 335.28466797 C3.24359932 340.85955209 1.37430641 345.33587181 -2.3125 349.625 C-2.9725 349.625 -3.6325 349.625 -4.3125 349.625 C-4.65474609 350.66333984 -4.65474609 350.66333984 -5.00390625 351.72265625 C-6.59873659 355.25984711 -8.82564659 358.07141463 -11.25 361.0625 C-14.50360269 365.08332778 -17.14313834 368.87817895 -19.3125 373.625 C-19.9725 373.625 -20.6325 373.625 -21.3125 373.625 C-21.54066406 374.31851562 -21.76882813 375.01203125 -22.00390625 375.7265625 C-23.87623673 379.8736348 -26.72580224 383.1452266 -29.59179688 386.6328125 C-32.63920524 390.44774994 -34.56183756 394.06056657 -36.3125 398.625 C-35.735 398.91375 -35.1575 399.2025 -34.5625 399.5 C-32.47916667 400.54166667 -30.39583333 401.58333333 -28.3125 402.625 C-28.3125 403.285 -28.3125 403.945 -28.3125 404.625 C-27.755625 404.728125 -27.19875 404.83125 -26.625 404.9375 C-23.67194706 405.81543466 -21.6971876 406.63776034 -19.3125 408.625 C-18.54841049 415.06395655 -20.63205113 420.55943843 -22.625 426.625 C-25.02422647 434.21116521 -27.09357944 441.59843182 -28.50390625 449.4296875 C-29.56405454 455.18560919 -30.97254738 460.8667919 -32.3125 466.5625 C-34.57138105 476.21282243 -36.63039627 485.85699411 -38.3125 495.625 C-38.9725 495.625 -39.6325 495.625 -40.3125 495.625 C-40.37566406 496.41777344 -40.43882812 497.21054687 -40.50390625 498.02734375 C-41.4107335 506.66606646 -43.32660916 514.72090068 -45.75 523.0625 C-48.50953179 532.56309323 -50.63740147 541.87176361 -52.3125 551.625 C-54.56440471 563.68014034 -57.51280248 575.49048111 -60.85058594 587.29052734 C-62.57583734 593.48085248 -63.88092507 599.58947953 -64.86523438 605.93920898 C-65.43601247 609.36668157 -66.2908255 612.59772373 -67.25 615.9375 C-68.61563074 620.82254549 -69.75901939 625.69897694 -70.6875 630.6875 C-71.9221388 637.16764839 -73.59247612 643.46265895 -75.375 649.8125 C-77.23665394 656.44926269 -78.85517665 662.93869995 -79.8203125 669.7734375 C-80.43046338 673.30843863 -81.35536859 676.73451401 -82.3125 680.1875 C-83.7625971 685.43674447 -84.90757038 690.6159243 -85.81640625 695.98046875 C-88.15977273 708.47227273 -88.15977273 708.47227273 -91.3125 711.625 C-92.49199219 712.06972656 -92.49199219 712.06972656 -93.6953125 712.5234375 C-96.56321236 713.73052371 -98.044105 715.01766745 -100.1875 717.25 C-100.87199219 717.9615625 -101.55648438 718.673125 -102.26171875 719.40625 C-106.28965352 723.76409181 -110.17234044 728.2262776 -113.9375 732.8125 C-116.99676219 736.43531049 -120.36674372 739.6929283 -123.7421875 743.01953125 C-124.54914063 743.81746094 -125.35609375 744.61539063 -126.1875 745.4375 C-126.98929688 746.22769531 -127.79109375 747.01789062 -128.6171875 747.83203125 C-130.59340443 749.87985024 -132.43827662 751.92542452 -134.27880859 754.08691406 C-139.12296045 759.63858953 -144.34159326 764.81838952 -149.546875 770.02734375 C-150.63160031 771.11529219 -151.71625468 772.20331138 -152.80084229 773.29139709 C-155.06500649 775.56151432 -157.33119231 777.82959098 -159.59863281 780.09643555 C-162.47568301 782.97338432 -165.34579611 785.85714625 -168.21416855 788.74274349 C-170.4500453 790.98984561 -172.69056104 793.23227978 -174.93231964 795.47351265 C-175.99106513 796.53342258 -177.04822685 797.59491741 -178.10363007 798.65815544 C-184.07146508 804.66613704 -190.16689056 810.34045676 -196.81329346 815.61012268 C-201.14060275 819.09882887 -205.20372386 822.88407037 -209.3125 826.625 C-211.94045325 829.00658263 -214.60606866 831.3328643 -217.3125 833.625 C-218.04750732 834.24882568 -218.04750732 834.24882568 -218.79736328 834.88525391 C-239.1175788 851.99479088 -267.36589874 873.17242651 -295.19140625 872.89697266 C-300.96418044 872.3939321 -306.3238555 870.59319092 -311.8125 868.8125 C-312.9778125 868.45607422 -314.143125 868.09964844 -315.34375 867.73242188 C-324.33801916 864.89568768 -324.33801916 864.89568768 -327.3125 861.625 C-329.41582891 860.91052357 -329.41582891 860.91052357 -331.3125 860.625 C-331.3125 859.965 -331.3125 859.305 -331.3125 858.625 C-331.9725 858.58375 -332.6325 858.5425 -333.3125 858.5 C-336.99532514 857.42584267 -339.2853276 855.57422302 -342.25 853.1953125 C-344.3238905 851.55229903 -344.3238905 851.55229903 -346.8046875 850.15625 C-349.30637839 848.6287378 -351.28809513 846.98595203 -353.4375 845 C-356.80823195 841.93722529 -360.25567269 839.03196553 -363.8125 836.1875 C-368.23178741 832.60645957 -372.24772796 828.80499527 -376.20703125 824.7265625 C-378.12485403 822.81229784 -380.09769658 821.09601458 -382.1875 819.375 C-387.44449883 814.87349801 -391.67483122 809.45310199 -396.06542969 804.13183594 C-399.91314786 799.48263536 -403.86500629 795.02459603 -408.1875 790.8125 C-412.05032347 787.00147684 -415.43213296 782.90711207 -418.828125 778.6796875 C-421.59729384 775.27482895 -424.44479573 771.9467838 -427.3125 768.625 C-430.90012694 764.46693418 -434.42948037 760.27762187 -437.875 756 C-446.36299054 745.57192626 -455.76990359 735.93707613 -465.23852539 726.40380859 C-466.42267036 725.20801092 -467.60230034 724.00772694 -468.77758789 722.80322266 C-470.51249755 721.02550819 -472.26041662 719.26155064 -474.01171875 717.5 C-474.78390999 716.70154663 -474.78390999 716.70154663 -475.57170105 715.88696289 C-478.4032398 713.07184566 -480.90030528 711.24420878 -484.56835938 709.62768555 C-487.55539149 708.23360493 -488.16641666 707.89270477 -489.81567383 704.87036133 C-490.04794678 703.8264624 -490.28021973 702.78256348 -490.51953125 701.70703125 C-490.79434326 700.54341064 -491.06915527 699.37979004 -491.35229492 698.1809082 C-491.6072876 696.9455835 -491.86228027 695.71025879 -492.125 694.4375 C-492.41286377 693.17188232 -492.70072754 691.90626465 -492.99731445 690.60229492 C-494.78476753 682.60703111 -496.33159726 674.5791366 -497.63671875 666.4921875 C-498.49552904 661.57760839 -499.6544333 656.76334104 -500.83496094 651.91821289 C-502.11388659 646.61676154 -503.14003653 641.29533589 -504.09765625 635.92553711 C-505.30217682 629.35273107 -506.89544995 622.88463626 -508.47851562 616.39453125 C-509.72478289 611.23730514 -510.82641662 606.09953086 -511.75 600.875 C-513.19891859 592.74773253 -515.15178503 584.76174188 -517.15600586 576.75488281 C-518.65336093 570.69566029 -519.8414156 564.66845164 -520.81860352 558.50488281 C-521.57867215 554.07296505 -522.65855391 549.73492537 -523.75 545.375 C-525.57247136 537.91425788 -527.14016543 530.47632888 -528.50390625 522.91796875 C-531.1286876 508.67451939 -534.42301478 494.5728749 -538.3125 480.625 C-539.55244598 476.17211225 -540.44371523 471.76772062 -541.0625 467.1875 C-542.53123961 457.07349632 -545.21568055 447.18929165 -547.67993164 437.28125 C-548.81982928 432.49464777 -549.40312795 428.11095798 -549.5625 423.1875 C-549.98353699 416.60275764 -551.59555424 411.16932249 -554.05859375 405.07421875 C-555.02452023 402.41716864 -555.6934401 400.06589292 -556.26171875 397.32421875 C-557.31540849 392.30263753 -558.94893213 387.57057455 -560.6875 382.75 C-560.99913086 381.86940918 -561.31076172 380.98881836 -561.63183594 380.08154297 C-563.2175858 375.61388663 -564.86329837 371.17582749 -566.5625 366.75 C-568.45489133 361.61235886 -569.52435493 356.37633 -570.59765625 351.015625 C-571.21695453 348.07818835 -571.96113715 345.25110663 -572.8125 342.375 C-574.96495529 334.54992815 -576.23966172 326.65711754 -577.3125 318.625 C-577.45220215 317.58859375 -577.5919043 316.5521875 -577.73583984 315.484375 C-580.2160663 296.0237055 -580.5840424 276.66414199 -580.5625 257.0625 C-580.56172455 255.88242371 -580.5609491 254.70234741 -580.56015015 253.48651123 C-580.52975404 237.51203734 -580.10521065 221.57961007 -579.3125 205.625 C-578.6525 205.625 -577.9925 205.625 -577.3125 205.625 C-577.28744385 204.6141333 -577.2623877 203.6032666 -577.23657227 202.56176758 C-576.31206987 165.55345532 -576.31206987 165.55345532 -575.3125 147.625 C-571.67893239 145.40092713 -568.32605328 145.18988978 -564.125 144.8125 C-542.36399095 142.5611131 -520.33174638 137.33515369 -499.37109375 131.10546875 C-497.3125 130.625 -497.3125 130.625 -493.3125 130.625 C-493.3125 129.965 -493.3125 129.305 -493.3125 128.625 C-492.54808594 128.52703125 -491.78367187 128.4290625 -490.99609375 128.328125 C-479.08561822 126.66553154 -467.65268747 123.5821575 -456.3125 119.625 C-449.24762591 117.21300146 -442.20673564 114.8331577 -435 112.875 C-419.25686899 108.46907255 -403.82181889 102.71405285 -388.58203125 96.81640625 C-385.19426907 95.58191704 -381.78662173 94.58610434 -378.3125 93.625 C-377.3225 93.295 -376.3325 92.965 -375.3125 92.625 C-374.9825 91.965 -374.6525 91.305 -374.3125 90.625 C-371.69670784 89.54825334 -369.10295051 88.56138435 -366.4375 87.625 C-364.98049376 87.10774998 -363.52471116 86.58703722 -362.0703125 86.0625 C-361.4220752 85.83433594 -360.77383789 85.60617187 -360.10595703 85.37109375 C-358.02704078 84.57376633 -358.02704078 84.57376633 -355.3125 82.625 C-353.92973795 82.12862388 -352.53185337 81.67330101 -351.125 81.25 C-347.20415111 80.00477926 -343.72215668 78.40147449 -340.13671875 76.39453125 C-338.3125 75.625 -338.3125 75.625 -334.3125 75.625 C-334.3125 74.965 -334.3125 74.305 -334.3125 73.625 C-333.343125 73.2125 -332.37375 72.8 -331.375 72.375 C-330.02059214 71.7922269 -328.66644148 71.20885581 -327.3125 70.625 C-326.66023437 70.3465625 -326.00796875 70.068125 -325.3359375 69.78125 C-319.35587366 67.18316983 -313.55059032 64.26547909 -307.7421875 61.30859375 C-305.42500792 60.17111721 -303.07332504 59.10176306 -300.6953125 58.09765625 C-297.69918262 56.79333643 -295.0683958 55.36556577 -292.3125 53.625 C-288.41722999 51.23605797 -284.55151013 49.35200413 -280.3125 47.625 C-278.19982366 46.57059298 -276.102661 45.49135164 -274.01171875 44.39453125 C-272.3125 43.625 -272.3125 43.625 -270.3125 43.625 C-270.3125 42.965 -270.3125 42.305 -270.3125 41.625 C-265.72882887 39.27986593 -261.19599886 37.25283295 -256.3125 35.625 C-255.9825 34.635 -255.6525 33.645 -255.3125 32.625 C-253.09765625 31.45703125 -253.09765625 31.45703125 -250.375 30.4375 C-249.47910156 30.09332031 -248.58320312 29.74914062 -247.66015625 29.39453125 C-245.3125 28.625 -245.3125 28.625 -243.3125 28.625 C-244.42677788 36.20208959 -247.95613294 40.52359652 -253.32421875 45.67578125 C-255.00760132 47.32609147 -256.51893581 48.98350327 -258 50.8125 C-260.3125 53.625 -260.3125 53.625 -262.6875 55.9375 C-267.0667016 60.42096831 -270.83828119 65.41367179 -274.3125 70.625 C-275.7975 71.12 -275.7975 71.12 -277.3125 71.625 C-278.34685556 73.27056566 -279.34013513 74.9420608 -280.3125 76.625 C-281.88553684 78.75234506 -283.52836727 80.6578793 -285.3125 82.625 C-285.9725 82.625 -286.6325 82.625 -287.3125 82.625 C-287.7132373 83.52581299 -287.7132373 83.52581299 -288.12207031 84.44482422 C-289.33755041 86.6708778 -290.44679408 87.87197711 -292.359375 89.5078125 C-292.95476074 90.03093018 -293.55014648 90.55404785 -294.16357422 91.09301758 C-294.79021973 91.63982178 -295.41686523 92.18662598 -296.0625 92.75 C-301.7024117 97.79922102 -306.03207147 102.70485791 -309.3125 109.625 C-288.61516406 107.80754062 -268.98784662 102.11204553 -249.07324219 96.40771484 C-246.63934148 95.71766482 -244.20148292 95.0489473 -241.7578125 94.39453125 C-240.51773437 94.05808594 -239.27765625 93.72164062 -238 93.375 C-236.97261719 93.10171875 -235.94523437 92.8284375 -234.88671875 92.546875 C-232.27068337 91.75499244 -232.27068337 91.75499244 -230.25390625 90.06640625 C-227.93031325 88.34124364 -226.41843804 88.14510148 -223.5625 87.8125 C-217.81848271 86.90111592 -212.75837068 85.04428404 -207.37158203 82.94482422 C-200.22514365 80.16725426 -192.94847576 77.92412834 -185.56640625 75.85546875 C-180.84303377 74.51106897 -176.70380398 72.89522988 -172.37109375 70.59375 C-169.29533476 69.14633401 -166.0841556 68.32560212 -162.8203125 67.40234375 C-158.82104164 66.16269437 -155.09838257 64.39754219 -151.3125 62.625 C-146.72502442 60.5419943 -142.12653868 58.53200337 -137.4375 56.6875 C-132.86014806 54.88365258 -128.40506005 52.86611356 -123.953125 50.7734375 C-121.11546859 49.53930882 -118.25420564 48.58319816 -115.3125 47.625 C-113.11955075 46.82732458 -110.93207038 46.01447118 -108.75 45.1875 C-107.65558594 44.77628906 -106.56117188 44.36507812 -105.43359375 43.94140625 C-102.52107449 42.71297197 -100.00484743 41.26646343 -97.3125 39.625 C-95.60006705 38.85735764 -93.87047638 38.12671231 -92.125 37.4375 C-91.26519531 37.09332031 -90.40539062 36.74914062 -89.51953125 36.39453125 C-87.3125 35.625 -87.3125 35.625 -85.3125 35.625 C-85.3125 34.965 -85.3125 34.305 -85.3125 33.625 C-80.34989743 31.70960953 -75.44623162 30.01538565 -70.3125 28.625 C-70.3125 27.965 -70.3125 27.305 -70.3125 26.625 C-64.68911751 24.47789032 -59.03460596 22.49263181 -53.3125 20.625 C-53.3125 19.965 -53.3125 19.305 -53.3125 18.625 C-47.97318812 15.76465435 -43.23306432 13.89369235 -37.3125 12.625 C-37.3125 11.965 -37.3125 11.305 -37.3125 10.625 C-31.97318812 7.76465435 -27.23306432 5.89369235 -21.3125 4.625 C-21.3125 3.965 -21.3125 3.305 -21.3125 2.625 C-14.0366291 -1.22794346 -7.87601397 -3.26928882 0 0 Z " fill="#E1F2F2" transform="translate(876.3125,419.375)"/>
<path d="M0 0 C0.94172058 -0.00608276 1.88344116 -0.01216553 2.85369873 -0.01843262 C21.80030739 -0.0983292 40.12954042 1.37353562 56.71484375 11.38671875 C58.70384983 12.44620912 60.48717768 12.98955966 62.6875 13.4375 C62.6875 14.0975 62.6875 14.7575 62.6875 15.4375 C63.38875 15.685 64.09 15.9325 64.8125 16.1875 C72.1604067 19.38224204 78.19868989 24.69919852 83.6875 30.4375 C84.35910156 31.12585938 85.03070312 31.81421875 85.72265625 32.5234375 C93.72623257 41.00750297 99.98844686 50.34034058 103.6875 61.4375 C104.3475 62.4275 105.0075 63.4175 105.6875 64.4375 C106.14660185 69.23297186 106.0229699 74.0598393 106 78.875 C105.99950653 79.57423584 105.99901306 80.27347168 105.99850464 80.99389648 C105.97642326 91.19637074 105.23080199 101.0288895 103.421875 111.078125 C102.27102895 117.4850739 101.97290991 123.94196419 101.6875 130.4375 C101.0275 130.4375 100.3675 130.4375 99.6875 130.4375 C99.59855469 131.43394531 99.50960938 132.43039062 99.41796875 133.45703125 C98.79072747 137.81488034 97.05065121 141.26992697 95 145.125 C94.27328043 146.53116884 93.54671946 147.93741965 92.8203125 149.34375 C92.45969727 150.03339844 92.09908203 150.72304688 91.72753906 151.43359375 C90.23464684 154.3100396 88.8069834 157.21785782 87.375 160.125 C80.94665086 173.14747232 71.52536697 184.00893872 59.6875 192.4375 C58.83027344 193.06269531 57.97304688 193.68789063 57.08984375 194.33203125 C48.46072354 200.51428177 38.67302083 207.4375 27.6875 207.4375 C27.6875 208.0975 27.6875 208.7575 27.6875 209.4375 C-2.3528931 215.38703269 -30.6119029 215.13611295 -59.3125 203.4375 C-59.3125 202.7775 -59.3125 202.1175 -59.3125 201.4375 C-59.9725 201.540625 -60.6325 201.64375 -61.3125 201.75 C-65.80817397 201.28170063 -68.66470267 198.99714084 -72.3125 196.4375 C-73.19679688 195.82132813 -74.08109375 195.20515625 -74.9921875 194.5703125 C-82.86731662 188.96391864 -90.50265639 183.24447735 -96.3125 175.4375 C-96.3125 174.7775 -96.3125 174.1175 -96.3125 173.4375 C-97.2096875 173.0353125 -97.2096875 173.0353125 -98.125 172.625 C-100.28474808 171.45256533 -101.67040256 170.24380718 -103.3125 168.4375 C-104.9872094 171.78691881 -104.91053374 175.5758861 -105.25 179.265625 C-105.33477097 180.15874893 -105.41954193 181.05187286 -105.50688171 181.97206116 C-105.78035957 184.87677059 -106.04690558 187.78205985 -106.3125 190.6875 C-106.40342926 191.66713715 -106.49435852 192.64677429 -106.58804321 193.65609741 C-107.75691064 206.28441373 -108.77859853 218.87006998 -109.13671875 231.55078125 C-109.3125 235.4375 -109.3125 235.4375 -109.79882812 238.29980469 C-110.30595544 241.39752342 -110.54750089 244.39362518 -110.70703125 247.52734375 C-110.7735791 248.75565918 -110.84012695 249.98397461 -110.90869141 251.24951172 C-110.98085781 252.62467115 -111.05295784 253.99983406 -111.125 255.375 C-111.69449242 266.1093498 -112.40276733 276.81770718 -113.33203125 287.52734375 C-116.09848632 320.03118791 -116.61639839 352.15890745 -116.37516212 384.74496651 C-116.25334428 401.40548333 -116.59437846 418.03857406 -117.18896484 434.6875 C-117.30118898 438.09414571 -117.37239671 441.49826744 -117.42578125 444.90625 C-117.66620691 456.12162611 -119.55448876 465.85682628 -123.3125 476.4375 C-128.15265316 474.67215356 -132.5960127 472.24213275 -137.125 469.8125 C-138.30739258 469.18214844 -138.30739258 469.18214844 -139.51367188 468.5390625 C-141.44785326 467.5074991 -143.38073983 466.47358828 -145.3125 465.4375 C-145.3125 464.7775 -145.3125 464.1175 -145.3125 463.4375 C-145.90111816 463.30770752 -146.48973633 463.17791504 -147.09619141 463.04418945 C-150.54302081 462.10065882 -153.56288245 460.31955145 -156.6875 458.625 C-157.33460938 458.28146484 -157.98171875 457.93792969 -158.6484375 457.58398438 C-162.69725268 455.40856251 -166.49726564 453.0072653 -170.3125 450.4375 C-171.96590592 449.49712538 -173.63270907 448.57988893 -175.3125 447.6875 C-179.87527018 445.22385549 -184.419092 442.73141926 -188.9375 440.1875 C-189.55367187 439.8462207 -190.16984375 439.50494141 -190.8046875 439.15332031 C-195.19748417 436.66753165 -195.19748417 436.66753165 -196.3125 434.4375 C-187.48991975 435.28582502 -180.35666762 439.22601998 -172.65039062 443.24609375 C-168.39948399 445.41238702 -164.06900399 447.41146898 -159.75 449.4375 C-152.67195045 452.77435907 -145.70108006 456.24687417 -138.84155273 460.01367188 C-136.34167983 461.38346525 -134.02666837 462.53277721 -131.3125 463.4375 C-131.3222435 462.18296524 -131.331987 460.92843048 -131.34202576 459.63587952 C-131.42410522 443.9706161 -130.99031453 428.3389996 -130.47265625 412.68359375 C-130.3847479 409.96283423 -130.29781046 407.24204386 -130.21080017 404.52125549 C-130.02907562 398.85596901 -129.8446821 393.19077469 -129.65844727 387.52563477 C-129.4452148 381.03870535 -129.23556168 374.55166831 -129.02798563 368.06455559 C-128.8039712 361.06461281 -128.57744808 354.0647528 -128.35015178 347.0649159 C-128.28611696 345.0882496 -128.2225617 343.11156779 -128.15901375 341.13488579 C-127.74296506 328.23650166 -127.29357778 315.34379136 -126.65239716 302.45446491 C-126.30191266 295.39091628 -126.05112664 288.32716125 -125.84765625 281.2578125 C-125.77009299 278.70190207 -125.69245329 276.14599395 -125.61474609 273.59008789 C-125.53472201 270.91422844 -125.45480701 268.23836591 -125.375 265.5625 C-124.41702007 233.47274153 -124.41702007 233.47274153 -123.73828125 220.96484375 C-123.55255968 217.47667114 -123.36838987 213.98842671 -123.1875 210.5 C-123.14278564 209.63870483 -123.09807129 208.77740967 -123.05200195 207.89001465 C-122.32038693 193.06635825 -122.2574672 178.2634772 -122.29296875 163.42578125 C-122.2949955 162.44347345 -122.29702225 161.46116566 -122.29911041 160.44909096 C-122.32127382 150.42976716 -122.3611958 140.41091104 -122.45017147 130.39194393 C-122.48138093 126.59823354 -122.50077038 122.80451374 -122.51812172 119.01071739 C-122.52931042 117.23332964 -122.54605208 115.45596648 -122.56886864 113.67868996 C-122.6858054 104.49684409 -122.49525424 96.09634119 -120.04026794 87.16116333 C-119.30292281 84.40165747 -118.86979958 81.7048648 -118.5 78.875 C-117.5617034 73.42810875 -115.34262889 69.00355712 -112.7578125 64.15234375 C-111.6294315 62.03281728 -110.64303739 59.97232868 -109.75 57.75 C-101.2865329 38.247228 -83.81284868 20.40431389 -64.1484375 12.1015625 C-62.03376337 11.28441676 -59.91198102 10.48524955 -57.78125 9.7109375 C-54.97137723 8.67938511 -52.22465748 7.57506093 -49.4609375 6.4296875 C-33.54383746 0.07772328 -16.89544591 0.0415182 0 0 Z " fill="#FDFEFD" transform="translate(741.3125,627.5625)"/>
<path d="M0 0 C2.83998651 1.16902524 5.60730575 2.11841378 8.55078125 2.97265625 C12.57430271 4.25185346 14.43011929 6.41449429 17.42578125 9.41015625 C21.34060677 11.5942168 25.36050864 13.52340293 29.42578125 15.41015625 C29.42578125 16.07015625 29.42578125 16.73015625 29.42578125 17.41015625 C29.94140625 17.65765625 30.45703125 17.90515625 30.98828125 18.16015625 C40.2608328 22.91531089 40.2608328 22.91531089 41.42578125 26.41015625 C41.99554687 26.67699219 42.5653125 26.94382812 43.15234375 27.21875 C46.44270213 28.9430787 48.47855238 31.64954664 50.80078125 34.47265625 C51.28611328 35.05684326 51.77144531 35.64103027 52.27148438 36.24291992 C57.39898665 42.48670072 62.23396032 48.55475186 64.58984375 56.390625 C65.43257536 58.6296414 65.43257536 58.6296414 67.34765625 61.17578125 C69.5767688 64.64515192 70.85922251 68.06481393 72.05078125 71.97265625 C73.59256653 76.95107789 73.59256653 76.95107789 75.44140625 81.8203125 C76.86221685 85.55839753 77.68648162 89.38620458 78.55078125 93.28515625 C78.73253906 94.06246094 78.91429687 94.83976563 79.1015625 95.640625 C80.15316577 100.34516596 80.61854507 104.59106064 80.42578125 109.41015625 C79.76578125 109.41015625 79.10578125 109.41015625 78.42578125 109.41015625 C78.08546875 110.83328125 78.08546875 110.83328125 77.73828125 112.28515625 C76.86950644 115.34713179 75.67038451 117.97857006 74.17578125 120.78515625 C71.81217434 125.3321537 70.1258357 129.94556943 68.48828125 134.78515625 C66.01768793 141.99433811 63.19430678 148.76199573 59.42578125 155.41015625 C58.91144531 156.33570313 58.39710938 157.26125 57.8671875 158.21484375 C52.12973063 167.64522943 44.22834992 174.98574708 36.31347656 182.5859375 C35.00016137 183.85509052 33.71119195 185.14972319 32.44213867 186.46313477 C29.15507901 189.6371632 25.33986064 191.91553703 21.48828125 194.34765625 C20.64160889 194.88253662 19.79493652 195.41741699 18.92260742 195.96850586 C12.28851151 200.06520319 5.8453786 202.98923083 -1.57421875 205.41015625 C-2.85216406 205.91384098 -4.1294632 206.41916702 -5.40625 206.92578125 C-30.48639902 216.35785996 -63.51256914 213.34954418 -87.56298828 202.51416016 C-99.19985661 197.14014223 -109.13423745 190.79477788 -118.63671875 182.16015625 C-119.20994873 181.6403418 -119.78317871 181.12052734 -120.3737793 180.58496094 C-122.89783049 178.22963895 -124.4655331 176.7362132 -125.57421875 173.41015625 C-126.56421875 173.08015625 -127.55421875 172.75015625 -128.57421875 172.41015625 C-131.74922606 168.91764821 -134.17196278 165.47361236 -136.57421875 161.41015625 C-137.03441406 160.70117188 -137.49460937 159.9921875 -137.96875 159.26171875 C-144.29552574 149.32711221 -149.03839644 138.13825389 -150.57421875 126.41015625 C-150.68378906 125.6728125 -150.79335938 124.93546875 -150.90625 124.17578125 C-153.74329705 101.63071406 -151.7611926 72.07118924 -137.57421875 53.41015625 C-137.20296875 52.42015625 -136.83171875 51.43015625 -136.44921875 50.41015625 C-132.82414754 41.55735078 -125.58692902 33.78250768 -118.57421875 27.41015625 C-117.90261719 26.78109375 -117.23101562 26.15203125 -116.5390625 25.50390625 C-113.09435502 22.36181793 -110.16405435 19.70104751 -105.57421875 18.41015625 C-105.57421875 17.75015625 -105.57421875 17.09015625 -105.57421875 16.41015625 C-95.3334945 7.82335428 -83.63807705 1.75233692 -70.69921875 -1.33984375 C-68.95342529 -1.7740564 -68.95342529 -1.7740564 -67.17236328 -2.21704102 C-43.27565361 -7.96078471 -22.99743724 -9.74904546 0 0 Z " fill="#FDFEFE" transform="translate(483.57421875,628.58984375)"/>
<path d="M0 0 C0.33 0 0.66 0 1 0 C1 25.08 1 50.16 1 76 C21.19911219 77.11740937 21.19911219 77.11740937 41 75 C40.43693538 77.83156534 39.86387352 80.6606573 39.28125 83.48828125 C39.0234375 84.75027344 38.765625 86.01226563 38.5 87.3125 C38.2421875 88.56675781 37.984375 89.82101562 37.71875 91.11328125 C33.07309741 116.23515259 36.20253385 142.15946116 50 164 C50.9923375 165.00760423 51.99203225 166.00803174 53 167 C53.67869141 168.15242188 53.67869141 168.15242188 54.37109375 169.328125 C56.28103733 172.4609821 58.57431604 175.076572 61.0625 177.75 C61.54928223 178.27368164 62.03606445 178.79736328 62.53759766 179.33691406 C74.92130508 192.50389199 88.22294508 200.83924041 104.98876953 207.23168945 C106.32809489 207.7433254 107.66254095 208.26792383 108.99169922 208.80541992 C133.41192335 218.48537373 165.48843508 216.48945724 189.484375 206.53515625 C198.93629421 202.40781819 208.02576043 197.65607995 216.1953125 191.2890625 C218 190 218 190 220 190 C220.26731934 189.40670898 220.53463867 188.81341797 220.81005859 188.20214844 C222.01584993 185.97066755 223.2358095 184.5335201 225.0390625 182.765625 C225.90917969 181.90517578 225.90917969 181.90517578 226.796875 181.02734375 C227.40015625 180.44082031 228.0034375 179.85429688 228.625 179.25 C229.23601562 178.64800781 229.84703125 178.04601562 230.4765625 177.42578125 C231.97988624 175.94594695 233.48934856 174.47235324 235 173 C236.21040501 175.42081002 236.10879552 176.90285672 236.08229065 179.60635376 C236.07527162 180.57470972 236.06825258 181.54306568 236.06102085 182.54076576 C236.04805438 183.61093122 236.03508791 184.68109669 236.02172852 185.78369141 C236.01193686 186.92383383 236.00214521 188.06397625 235.99205685 189.23866844 C235.95908338 192.94302798 235.91911395 196.64727514 235.87890625 200.3515625 C235.85757207 202.63305238 235.83669463 204.91454659 235.81628418 207.19604492 C235.7372342 215.6724168 235.64932345 224.14870418 235.5625 232.625 C235.376875 251.55875 235.19125 270.4925 235 290 C172.3 290 109.6 290 45 290 C43.68 285.05 42.36 280.1 41 275 C40.62875 273.63875 40.2575 272.2775 39.875 270.875 C39.16727619 267.74079454 38.6790752 264.7384978 38.25 261.5625 C36.78126039 251.44849632 34.09681945 241.56429165 31.63256836 231.65625 C30.49267072 226.86964777 29.90937205 222.48595798 29.75 217.5625 C29.32896301 210.97775764 27.71694576 205.54432249 25.25390625 199.44921875 C24.28797977 196.79216864 23.6190599 194.44089292 23.05078125 191.69921875 C21.99709151 186.67763753 20.36356787 181.94557455 18.625 177.125 C18.15755371 175.80411377 18.15755371 175.80411377 17.68066406 174.45654297 C16.0949142 169.98888663 14.44920163 165.55082749 12.75 161.125 C10.85760867 155.98735886 9.78814507 150.75133 8.71484375 145.390625 C8.09554547 142.45318835 7.35136285 139.62610663 6.5 136.75 C4.34754471 128.92492815 3.07283828 121.03211754 2 113 C1.86029785 111.96359375 1.7205957 110.9271875 1.57666016 109.859375 C-0.9035663 90.3987055 -1.2715424 71.03914199 -1.25 51.4375 C-1.24922455 50.25742371 -1.2484491 49.07734741 -1.24765015 47.86151123 C-1.21725404 31.88703734 -0.79271065 15.95461007 0 0 Z " fill="#CFEAEA" transform="translate(297,625)"/>
<path d="M0 0 C1.59807728 4.01016125 0.33038009 7.44551222 -0.80078125 11.40625 C-0.99721725 12.12679565 -1.19365326 12.84734131 -1.39604187 13.58972168 C-2.02574359 15.89577068 -2.66805489 18.19803145 -3.3125 20.5 C-5.80480271 29.45967051 -8.21906145 38.27482247 -9.59887695 47.48779297 C-10.13719356 50.85923418 -10.99500259 54.03079215 -11.9375 57.3125 C-13.30313074 62.19754549 -14.44651939 67.07397694 -15.375 72.0625 C-16.6096388 78.54264839 -18.27997612 84.83765895 -20.0625 91.1875 C-21.92415394 97.82426269 -23.54267665 104.31369995 -24.5078125 111.1484375 C-25.11796338 114.68343863 -26.04286859 118.10951401 -27 121.5625 C-28.4500971 126.81174447 -29.59507038 131.9909243 -30.50390625 137.35546875 C-32.84727273 149.84727273 -32.84727273 149.84727273 -36 153 C-36.78632812 153.29648438 -37.57265625 153.59296875 -38.3828125 153.8984375 C-41.25071236 155.10552371 -42.731605 156.39266745 -44.875 158.625 C-45.55949219 159.3365625 -46.24398437 160.048125 -46.94921875 160.78125 C-52.90224799 167.19439294 -52.90224799 167.19439294 -58.11328125 174.19921875 C-59.70153653 176.08958942 -60.58960309 176.89191358 -62.99487305 177.52539062 C-65.51088544 177.71667742 -67.97697576 177.72774288 -70.5 177.6875 C-72.45976408 177.71283382 -74.41942591 177.74718313 -76.37890625 177.7890625 C-77.43480957 177.81129883 -78.49071289 177.83353516 -79.57861328 177.85644531 C-87.1454384 178.17393448 -94.6653046 179.13739126 -102.1875 179.98510742 C-107.82488488 180.60894811 -113.32644725 181.1921822 -119 181 C-120.12098096 175.30268443 -120.41499492 169.60050266 -120.75610352 163.81665039 C-120.82452454 162.69870087 -120.89294556 161.58075134 -120.96343994 160.42892456 C-121.18854794 156.73535928 -121.40892886 153.04153041 -121.62890625 149.34765625 C-121.78426919 146.76898818 -121.93978398 144.19032925 -122.09544373 141.61167908 C-122.42117666 136.20242776 -122.74451399 130.79304047 -123.06616211 125.38354492 C-123.43586514 119.16683217 -123.81114013 112.95047392 -124.18923432 106.73426634 C-124.55473706 100.72135666 -124.91516503 94.70815413 -125.27366447 88.69482231 C-125.42576778 86.15329106 -125.57925164 83.61184201 -125.7341938 81.07048225 C-127.28344621 55.59621128 -127.28344621 55.59621128 -127 43 C-119.07334961 40.11642791 -111.16118654 37.39738264 -103.08203125 34.96484375 C-100.18380126 34.05753981 -97.34597634 33.05848903 -94.5 32 C-87.16507142 29.27983168 -79.66670422 27.10600996 -72.1796875 24.84765625 C-64.53352108 22.51527876 -57.01826791 19.9878294 -49.57885742 17.05517578 C-45.76118704 15.57099942 -41.99834187 14.46824225 -38.02685547 13.52514648 C-34.54184541 12.62220061 -31.19022568 11.36222905 -27.8125 10.125 C-21.53876566 7.86049969 -15.24591985 5.797977 -8.83203125 3.95703125 C-5.71902993 2.90505149 -2.90524644 1.52794442 0 0 Z " fill="#6D8685" transform="translate(821,978)"/>
<path d="M0 0 C0.94172058 -0.00608276 1.88344116 -0.01216553 2.85369873 -0.01843262 C21.80030739 -0.0983292 40.12954042 1.37353562 56.71484375 11.38671875 C58.70384983 12.44620912 60.48717768 12.98955966 62.6875 13.4375 C62.6875 14.0975 62.6875 14.7575 62.6875 15.4375 C63.38875 15.685 64.09 15.9325 64.8125 16.1875 C72.1604067 19.38224204 78.19868989 24.69919852 83.6875 30.4375 C84.35910156 31.12585938 85.03070312 31.81421875 85.72265625 32.5234375 C93.72623257 41.00750297 99.98844686 50.34034058 103.6875 61.4375 C104.3475 62.4275 105.0075 63.4175 105.6875 64.4375 C106.14660185 69.23297186 106.0229699 74.0598393 106 78.875 C105.99950653 79.57423584 105.99901306 80.27347168 105.99850464 80.99389648 C105.97642326 91.19637074 105.23080199 101.0288895 103.421875 111.078125 C102.27102895 117.4850739 101.97290991 123.94196419 101.6875 130.4375 C101.0275 130.4375 100.3675 130.4375 99.6875 130.4375 C99.59855469 131.43394531 99.50960938 132.43039062 99.41796875 133.45703125 C98.79072747 137.81488034 97.05065121 141.26992697 95 145.125 C94.27328043 146.53116884 93.54671946 147.93741965 92.8203125 149.34375 C92.45969727 150.03339844 92.09908203 150.72304688 91.72753906 151.43359375 C90.23464684 154.3100396 88.8069834 157.21785782 87.375 160.125 C80.94665086 173.14747232 71.52536697 184.00893872 59.6875 192.4375 C58.83027344 193.06269531 57.97304688 193.68789063 57.08984375 194.33203125 C48.46072354 200.51428177 38.67302083 207.4375 27.6875 207.4375 C27.6875 208.0975 27.6875 208.7575 27.6875 209.4375 C-2.3528931 215.38703269 -30.6119029 215.13611295 -59.3125 203.4375 C-59.3125 202.7775 -59.3125 202.1175 -59.3125 201.4375 C-59.9725 201.540625 -60.6325 201.64375 -61.3125 201.75 C-65.80817397 201.28170063 -68.66470267 198.99714084 -72.3125 196.4375 C-73.19679688 195.82132813 -74.08109375 195.20515625 -74.9921875 194.5703125 C-82.86731662 188.96391864 -90.50265639 183.24447735 -96.3125 175.4375 C-96.3125 174.7775 -96.3125 174.1175 -96.3125 173.4375 C-97.2096875 173.0353125 -97.2096875 173.0353125 -98.125 172.625 C-100.28474808 171.45256533 -101.67040256 170.24380718 -103.3125 168.4375 C-104.9872094 171.78691881 -104.91053374 175.5758861 -105.25 179.265625 C-105.33477097 180.15874893 -105.41954193 181.05187286 -105.50688171 181.97206116 C-105.78035957 184.87677059 -106.04690558 187.78205985 -106.3125 190.6875 C-106.40342926 191.66713715 -106.49435852 192.64677429 -106.58804321 193.65609741 C-107.75691064 206.28441373 -108.77859853 218.87006998 -109.13671875 231.55078125 C-109.3125 235.4375 -109.3125 235.4375 -109.79882812 238.29980469 C-110.30595544 241.39752342 -110.54750089 244.39362518 -110.70703125 247.52734375 C-110.7735791 248.75565918 -110.84012695 249.98397461 -110.90869141 251.24951172 C-110.98085781 252.62467115 -111.05295784 253.99983406 -111.125 255.375 C-111.69449242 266.1093498 -112.40276733 276.81770718 -113.33203125 287.52734375 C-116.09848632 320.03118791 -116.61639839 352.15890745 -116.37516212 384.74496651 C-116.25334428 401.40548333 -116.59437846 418.03857406 -117.18896484 434.6875 C-117.30118898 438.09414571 -117.37239671 441.49826744 -117.42578125 444.90625 C-117.66620691 456.12162611 -119.55448876 465.85682628 -123.3125 476.4375 C-128.15265316 474.67215356 -132.5960127 472.24213275 -137.125 469.8125 C-138.30739258 469.18214844 -138.30739258 469.18214844 -139.51367188 468.5390625 C-141.44785326 467.5074991 -143.38073983 466.47358828 -145.3125 465.4375 C-145.3125 464.7775 -145.3125 464.1175 -145.3125 463.4375 C-145.90111816 463.30770752 -146.48973633 463.17791504 -147.09619141 463.04418945 C-150.54302081 462.10065882 -153.56288245 460.31955145 -156.6875 458.625 C-157.33460938 458.28146484 -157.98171875 457.93792969 -158.6484375 457.58398438 C-162.69725268 455.40856251 -166.49726564 453.0072653 -170.3125 450.4375 C-171.96590592 449.49712538 -173.63270907 448.57988893 -175.3125 447.6875 C-179.87527018 445.22385549 -184.419092 442.73141926 -188.9375 440.1875 C-189.55367187 439.8462207 -190.16984375 439.50494141 -190.8046875 439.15332031 C-195.19748417 436.66753165 -195.19748417 436.66753165 -196.3125 434.4375 C-187.48991975 435.28582502 -180.35666762 439.22601998 -172.65039062 443.24609375 C-168.39948399 445.41238702 -164.06900399 447.41146898 -159.75 449.4375 C-152.67195045 452.77435907 -145.70108006 456.24687417 -138.84155273 460.01367188 C-136.34167983 461.38346525 -134.02666837 462.53277721 -131.3125 463.4375 C-131.3222435 462.18296524 -131.331987 460.92843048 -131.34202576 459.63587952 C-131.42410522 443.9706161 -130.99031453 428.3389996 -130.47265625 412.68359375 C-130.3847479 409.96283423 -130.29781046 407.24204386 -130.21080017 404.52125549 C-130.02907562 398.85596901 -129.8446821 393.19077469 -129.65844727 387.52563477 C-129.4452148 381.03870535 -129.23556168 374.55166831 -129.02798563 368.06455559 C-128.8039712 361.06461281 -128.57744808 354.0647528 -128.35015178 347.0649159 C-128.28611696 345.0882496 -128.2225617 343.11156779 -128.15901375 341.13488579 C-127.74296506 328.23650166 -127.29357778 315.34379136 -126.65239716 302.45446491 C-126.30191266 295.39091628 -126.05112664 288.32716125 -125.84765625 281.2578125 C-125.77009299 278.70190207 -125.69245329 276.14599395 -125.61474609 273.59008789 C-125.53472201 270.91422844 -125.45480701 268.23836591 -125.375 265.5625 C-124.41702007 233.47274153 -124.41702007 233.47274153 -123.73828125 220.96484375 C-123.55255968 217.47667114 -123.36838987 213.98842671 -123.1875 210.5 C-123.14278564 209.63870483 -123.09807129 208.77740967 -123.05200195 207.89001465 C-122.32038693 193.06635825 -122.2574672 178.2634772 -122.29296875 163.42578125 C-122.2949955 162.44347345 -122.29702225 161.46116566 -122.29911041 160.44909096 C-122.32127382 150.42976716 -122.3611958 140.41091104 -122.45017147 130.39194393 C-122.48138093 126.59823354 -122.50077038 122.80451374 -122.51812172 119.01071739 C-122.52931042 117.23332964 -122.54605208 115.45596648 -122.56886864 113.67868996 C-122.6858054 104.49684409 -122.49525424 96.09634119 -120.04026794 87.16116333 C-119.30292281 84.40165747 -118.86979958 81.7048648 -118.5 78.875 C-117.5617034 73.42810875 -115.34262889 69.00355712 -112.7578125 64.15234375 C-111.6294315 62.03281728 -110.64303739 59.97232868 -109.75 57.75 C-101.2865329 38.247228 -83.81284868 20.40431389 -64.1484375 12.1015625 C-62.03376337 11.28441676 -59.91198102 10.48524955 -57.78125 9.7109375 C-54.97137723 8.67938511 -52.22465748 7.57506093 -49.4609375 6.4296875 C-33.54383746 0.07772328 -16.89544591 0.0415182 0 0 Z M-86.2578125 45.69140625 C-101.37996257 63.77189848 -109.97142645 83.18713908 -108.63427734 106.98706055 C-108.22752632 110.08460228 -107.27636527 112.68199901 -106.06152344 115.54467773 C-105.07576581 118.03573997 -104.59071267 120.59444672 -104.08618164 123.21899414 C-99.33352327 147.43048523 -84.62708782 168.16242974 -64.29125977 181.95068359 C-47.18949614 193.16228002 -30.97084824 197.78395135 -10.6875 197.875 C-9.3895752 197.88515137 -8.09165039 197.89530273 -6.75439453 197.90576172 C5.71401301 197.79366131 17.34339435 195.67186686 28.6875 190.4375 C29.61949219 190.02886719 30.55148437 189.62023437 31.51171875 189.19921875 C48.0106503 181.54285182 61.04997633 168.85424422 71.6171875 154.234375 C73.96500321 151.06260887 76.50030269 148.14686521 79.1796875 145.25390625 C82.27980962 141.51930318 84.05595751 137.85225289 85.1875 133.1484375 C85.4335498 132.13410645 85.67959961 131.11977539 85.93310547 130.07470703 C86.18205566 128.99817871 86.43100586 127.92165039 86.6875 126.8125 C86.94805176 125.69601074 87.20860352 124.57952148 87.47705078 123.42919922 C92.97902695 99.37396759 97.71567546 74.66644201 83.86328125 52.44921875 C73.12838756 37.58996734 59.04033009 25.83311942 41.875 19.25 C40.95243408 18.89301025 40.95243408 18.89301025 40.01123047 18.52880859 C37.91998037 17.76421369 35.81652562 17.0898134 33.6875 16.4375 C32.82688965 16.16462158 31.9662793 15.89174316 31.07958984 15.6105957 C21.13750159 12.87151539 11.23513206 12.94778068 0.98730469 12.99145508 C-2.04301419 12.9999454 -5.07142955 12.9711501 -8.1015625 12.93945312 C-37.75473279 12.83194607 -66.2490814 22.93097003 -86.2578125 45.69140625 Z " fill="#8ACFCD" transform="translate(741.3125,627.5625)"/>
<path d="M0 0 C2.83998651 1.16902524 5.60730575 2.11841378 8.55078125 2.97265625 C12.57430271 4.25185346 14.43011929 6.41449429 17.42578125 9.41015625 C21.34060677 11.5942168 25.36050864 13.52340293 29.42578125 15.41015625 C29.42578125 16.07015625 29.42578125 16.73015625 29.42578125 17.41015625 C29.94140625 17.65765625 30.45703125 17.90515625 30.98828125 18.16015625 C40.2608328 22.91531089 40.2608328 22.91531089 41.42578125 26.41015625 C41.99554687 26.67699219 42.5653125 26.94382812 43.15234375 27.21875 C46.44270213 28.9430787 48.47855238 31.64954664 50.80078125 34.47265625 C51.28611328 35.05684326 51.77144531 35.64103027 52.27148438 36.24291992 C57.39898665 42.48670072 62.23396032 48.55475186 64.58984375 56.390625 C65.43257536 58.6296414 65.43257536 58.6296414 67.34765625 61.17578125 C69.5767688 64.64515192 70.85922251 68.06481393 72.05078125 71.97265625 C73.59256653 76.95107789 73.59256653 76.95107789 75.44140625 81.8203125 C76.86221685 85.55839753 77.68648162 89.38620458 78.55078125 93.28515625 C78.73253906 94.06246094 78.91429687 94.83976563 79.1015625 95.640625 C80.15316577 100.34516596 80.61854507 104.59106064 80.42578125 109.41015625 C79.76578125 109.41015625 79.10578125 109.41015625 78.42578125 109.41015625 C78.08546875 110.83328125 78.08546875 110.83328125 77.73828125 112.28515625 C76.86950644 115.34713179 75.67038451 117.97857006 74.17578125 120.78515625 C71.81217434 125.3321537 70.1258357 129.94556943 68.48828125 134.78515625 C66.01768793 141.99433811 63.19430678 148.76199573 59.42578125 155.41015625 C58.91144531 156.33570313 58.39710938 157.26125 57.8671875 158.21484375 C52.12973063 167.64522943 44.22834992 174.98574708 36.31347656 182.5859375 C35.00016137 183.85509052 33.71119195 185.14972319 32.44213867 186.46313477 C29.15507901 189.6371632 25.33986064 191.91553703 21.48828125 194.34765625 C20.64160889 194.88253662 19.79493652 195.41741699 18.92260742 195.96850586 C12.28851151 200.06520319 5.8453786 202.98923083 -1.57421875 205.41015625 C-2.85216406 205.91384098 -4.1294632 206.41916702 -5.40625 206.92578125 C-30.48639902 216.35785996 -63.51256914 213.34954418 -87.56298828 202.51416016 C-99.19985661 197.14014223 -109.13423745 190.79477788 -118.63671875 182.16015625 C-119.20994873 181.6403418 -119.78317871 181.12052734 -120.3737793 180.58496094 C-122.89783049 178.22963895 -124.4655331 176.7362132 -125.57421875 173.41015625 C-126.56421875 173.08015625 -127.55421875 172.75015625 -128.57421875 172.41015625 C-131.74922606 168.91764821 -134.17196278 165.47361236 -136.57421875 161.41015625 C-137.03441406 160.70117188 -137.49460937 159.9921875 -137.96875 159.26171875 C-144.29552574 149.32711221 -149.03839644 138.13825389 -150.57421875 126.41015625 C-150.68378906 125.6728125 -150.79335938 124.93546875 -150.90625 124.17578125 C-153.74329705 101.63071406 -151.7611926 72.07118924 -137.57421875 53.41015625 C-137.20296875 52.42015625 -136.83171875 51.43015625 -136.44921875 50.41015625 C-132.82414754 41.55735078 -125.58692902 33.78250768 -118.57421875 27.41015625 C-117.90261719 26.78109375 -117.23101562 26.15203125 -116.5390625 25.50390625 C-113.09435502 22.36181793 -110.16405435 19.70104751 -105.57421875 18.41015625 C-105.57421875 17.75015625 -105.57421875 17.09015625 -105.57421875 16.41015625 C-95.3334945 7.82335428 -83.63807705 1.75233692 -70.69921875 -1.33984375 C-68.95342529 -1.7740564 -68.95342529 -1.7740564 -67.17236328 -2.21704102 C-43.27565361 -7.96078471 -22.99743724 -9.74904546 0 0 Z M-75.13671875 16.47265625 C-76.0302002 16.7864624 -76.92368164 17.10026855 -77.84423828 17.42358398 C-101.88928198 26.17570266 -117.69518504 43.21169939 -129.57421875 65.41015625 C-129.98800781 66.18101562 -130.40179688 66.951875 -130.828125 67.74609375 C-139.49372915 85.48509519 -138.06979692 102.21345018 -134.1003418 120.92456055 C-133.75944981 122.5350577 -133.43191564 124.14846369 -133.12036133 125.76489258 C-132.04702718 131.10514632 -130.36465272 135.81520671 -128.01171875 140.72265625 C-127.66165771 141.45685791 -127.31159668 142.19105957 -126.95092773 142.94750977 C-123.58245682 149.77464522 -119.48168342 155.57356747 -114.57421875 161.41015625 C-113.87683594 162.26996094 -113.17945313 163.12976563 -112.4609375 164.015625 C-99.92707194 178.795046 -83.1320295 188.2608736 -64.57421875 193.41015625 C-62.80498047 193.94382812 -62.80498047 193.94382812 -61 194.48828125 C-37.10108125 200.33499106 -10.9994104 193.34461633 9.80078125 181.47265625 C25.55193404 171.50925927 36.7049553 158.18701383 46.21875 142.38671875 C47.14946386 140.86263715 48.1178729 139.36153254 49.1015625 137.87109375 C56.7309826 126.27176126 62.32043781 114.33748363 63.42578125 100.41015625 C64.41578125 100.41015625 65.40578125 100.41015625 66.42578125 100.41015625 C65.04797282 75.15033508 50.36547876 51.10498774 32.125 34.2890625 C13.97380504 19.0491885 -7.1685308 11.99782945 -30.67919922 12.2043457 C-32.80709024 12.22251004 -34.93453962 12.22485504 -37.0625 12.22460938 C-56.40939319 12.15709544 -56.40939319 12.15709544 -75.13671875 16.47265625 Z " fill="#89CFCD" transform="translate(483.57421875,628.58984375)"/>
<path d="M0 0 C10.29338034 8.8139989 17.13371652 19.44741811 19.26953125 32.9609375 C20.40997516 49.86194228 16.51097677 63.23434143 5.76953125 76.5234375 C-2.49093773 85.41689261 -12.73300599 91.56624279 -24.94433594 92.04833984 C-43.1523681 92.63581057 -55.78922612 90.99731538 -69.62890625 78.16015625 C-81.41316745 65.82829927 -84.19404297 53.05394047 -83.9375 36.54296875 C-83.5023231 23.63450068 -79.21243266 13.56153635 -70.35546875 4.1484375 C-50.60304049 -14.24023736 -21.81170693 -16.28857084 0 0 Z " fill="#020202" transform="translate(471.73046875,700.0390625)"/>
<path d="M0 0 C3.57591455 2.78826817 6.82218236 5.76786069 10 9 C10.99193359 9.98033203 10.99193359 9.98033203 12.00390625 10.98046875 C20.5315919 20.50274409 22.94348067 34.53511894 22.4765625 46.9453125 C21.30711092 58.96304352 17.70156811 69.40491961 9 78 C8.20078125 78.80050781 7.4015625 79.60101562 6.578125 80.42578125 C-4.41633595 90.85686144 -14.50460418 94.38096416 -29.5 94.25 C-30.38558594 94.25773438 -31.27117188 94.26546875 -32.18359375 94.2734375 C-44.8257543 94.23630928 -55.85509504 90.50475647 -65.3125 81.8203125 C-75.59423016 70.72937209 -81.42294729 58.28713934 -81.3125 43.125 C-81.30831055 42.33488525 -81.30412109 41.54477051 -81.29980469 40.73071289 C-81.18375594 34.72519004 -80.3343221 29.56801506 -78 24 C-77.73316406 23.25878906 -77.46632813 22.51757812 -77.19140625 21.75390625 C-72.61023262 10.00574099 -63.54676236 1.35768157 -52.42578125 -4.3125 C-35.04865339 -11.73256087 -15.78762831 -10.76749093 0 0 Z " fill="#010101" transform="translate(762,698)"/>
<path d="M0 0 C3.36937448 0.57991413 4.96552427 1.60349679 7.3125 4.0625 C7.92480469 4.70058594 8.53710938 5.33867188 9.16796875 5.99609375 C10.85748656 7.84411643 12.49725748 9.72260117 14.125 11.625 C17.40512568 15.4394448 20.92525032 18.96563156 24.5 22.5 C28.53300293 26.48775184 32.39402477 30.51494923 36.0625 34.84375 C39.30297491 38.45008499 42.79113639 41.8103425 46.23779297 45.21826172 C49.72609586 48.68240321 53.02160997 52.23116959 56.19921875 55.984375 C58.50377768 58.5638813 60.96653245 60.95473629 63.4375 63.375 C65.30151726 65.24060799 67.15113328 67.11925627 69 69 C70.16015625 70.15242188 70.16015625 70.15242188 71.34375 71.328125 C77.9533373 78.57894092 79.29483796 86.68278053 81 96 C81.49017222 98.48955893 81.99073339 100.97689933 82.49145508 103.46435547 C82.83111318 105.15791719 83.16687532 106.85226485 83.4987793 108.54736328 C84.70587292 114.69008911 86.09810236 120.77099411 87.57250977 126.85424805 C88.83469948 132.12647454 89.83636754 137.42306388 90.78320312 142.76171875 C91.96357998 149.20013798 93.59934741 155.50663855 95.22973633 161.84326172 C96.60912038 167.26313311 97.71115115 172.64402029 98.53125 178.1796875 C99.26601817 182.60054264 100.3486827 186.93397639 101.4140625 191.28515625 C102 194 102 194 102 197 C97.95696826 196.48096214 96.36261732 194.57452824 93.75 191.5625 C92.95851563 190.65242188 92.16703125 189.74234375 91.3515625 188.8046875 C88.56368971 185.47961663 85.84911469 182.10452 83.16015625 178.69921875 C80.67377094 175.59236116 78.13000611 172.53990216 75.5625 169.5 C74.71816406 168.4996875 73.87382812 167.499375 73.00390625 166.46875 C65.26664757 157.48225339 57.15301231 148.91190873 48.79760742 140.50244141 C47.55127021 139.24448981 46.30943763 137.98206008 45.07202148 136.71533203 C43.2544381 134.85493414 41.42382301 133.00828308 39.58984375 131.1640625 C38.77543068 130.3233873 38.77543068 130.3233873 37.94456482 129.46572876 C35.03792712 126.57510749 32.49244756 124.64465044 28.72607422 122.98461914 C25.74108782 121.59767248 25.14522279 121.26612778 23.49682617 118.24536133 C23.26455322 117.2014624 23.03228027 116.15756348 22.79296875 115.08203125 C22.51815674 113.91841064 22.24334473 112.75479004 21.96020508 111.5559082 C21.57771606 109.70292114 21.57771606 109.70292114 21.1875 107.8125 C20.89963623 106.54688232 20.61177246 105.28126465 20.31518555 103.97729492 C18.52773247 95.98203111 16.98090274 87.9541366 15.67578125 79.8671875 C14.81697096 74.95260839 13.6580667 70.13834104 12.47753906 65.29321289 C11.19861341 59.99176154 10.17246347 54.67033589 9.21484375 49.30053711 C8.17911678 43.6488009 6.8605425 38.08144211 5.5 32.5 C-0.25518038 8.79700768 -0.25518038 8.79700768 0 0 Z " fill="#FDFDFD" transform="translate(363,1006)"/>
<path d="M0 0 C5.62358844 0.65429085 9.77616031 5.21751705 13.42578125 9.28515625 C19.08516359 16.95548664 22.02719137 26.80764839 21.65234375 36.30859375 C22.31234375 36.30859375 22.97234375 36.30859375 23.65234375 36.30859375 C23.8225 37.48292969 23.99265625 38.65726563 24.16796875 39.8671875 C25.38071782 47.99898918 26.7141879 56.01778875 28.71484375 63.99609375 C30.26623243 70.19442264 31.24492422 76.29070936 31.93383789 82.63916016 C32.50448764 87.68418003 33.62225974 92.40558422 34.94140625 97.296875 C35.70921222 100.5495036 36.13689584 103.73978652 36.52734375 107.05859375 C37.74516181 117.0058135 39.95887923 126.74143494 42.06054688 136.53271484 C43.70464408 144.24450743 45.26005389 151.9737013 46.58984375 159.74609375 C47.54125982 165.153715 48.90321659 170.44150961 50.33178711 175.73999023 C51.27787888 179.34749679 51.86851515 182.57603425 51.65234375 186.30859375 C36.03746328 173.59880732 23.64646057 158.78203877 13.65234375 141.30859375 C13.13027344 140.41398438 12.60820312 139.519375 12.0703125 138.59765625 C2.21675621 120.45047343 -1.35795348 99.33205404 -5.34765625 79.30859375 C-5.53763184 78.39166748 -5.72760742 77.47474121 -5.92333984 76.5300293 C-7.19948137 70.34162503 -8.04294021 64.19757667 -8.78515625 57.921875 C-9.24803397 54.32844714 -9.24803397 54.32844714 -10.390625 51.0703125 C-11.69356476 45.94896151 -11.68825062 41.07298215 -11.66015625 35.80859375 C-11.6559668 34.74721191 -11.65177734 33.68583008 -11.64746094 32.59228516 C-11.20296159 1.47260227 -11.20296159 1.47260227 0 0 Z " fill="#6B8483" transform="translate(249.34765625,648.69140625)"/>
<path d="M0 0 C3.5625 0.5 3.5625 0.5 5.8125 2.0625 C16.62962543 17.12921042 13.24093894 40.00015794 10.48828125 57.171875 C9.18549523 64.855913 7.64251907 72.48864087 6.03808594 80.11450195 C5.53908734 82.61743588 5.12040425 85.12741327 4.69921875 87.64453125 C-2.5954428 128.08808298 -21.19023472 158.20129467 -50.4375 186.5 C-51.93774852 182.56437048 -50.91981192 179.61328489 -49.85546875 175.63671875 C-49.68122879 174.96768021 -49.50698883 174.29864166 -49.32746887 173.60932922 C-48.76897018 171.46623331 -48.19847785 169.32663273 -47.625 167.1875 C-45.13109216 157.880439 -43.06045197 148.82771181 -41.91870117 139.23510742 C-41.16301998 133.36947245 -40.03143017 127.58255368 -38.88793945 121.78295898 C-38.49825856 119.8036547 -38.11684641 117.82288086 -37.73632812 115.84179688 C-36.59342507 109.98113032 -35.39150056 104.16491722 -33.8984375 98.3828125 C-32.25757968 91.99753761 -31.11405618 85.55745207 -30 79.0625 C-29.56863504 76.5987959 -29.13633405 74.13525551 -28.703125 71.671875 C-28.49107422 70.46337891 -28.27902344 69.25488281 -28.06054688 68.00976562 C-27.16003842 62.93699545 -26.21449658 57.8734497 -25.25 52.8125 C-25.09539307 51.99531494 -24.94078613 51.17812988 -24.78149414 50.33618164 C-24.04807878 46.50497277 -23.26010309 42.6984978 -22.37890625 38.8984375 C-21.74207545 36.0965649 -21.32568966 33.48862461 -21.0078125 30.61328125 C-19.71762069 19.60138098 -15.48627724 13.65224884 -7.74829102 5.8828125 C-6.28945939 4.41075104 -6.28945939 4.41075104 -4.77734375 2.140625 C-3.4375 0.5 -3.4375 0.5 0 0 Z " fill="#6B8483" transform="translate(931.4375,649.5)"/>
<path d="M0 0 C0.33 0 0.66 0 1 0 C1 25.08 1 50.16 1 76 C21.19911219 77.11740937 21.19911219 77.11740937 41 75 C40.43693538 77.83156534 39.86387352 80.6606573 39.28125 83.48828125 C39.0234375 84.75027344 38.765625 86.01226563 38.5 87.3125 C38.2421875 88.56675781 37.984375 89.82101562 37.71875 91.11328125 C36.47743465 97.82582895 35.83025975 104.29971506 35.875 111.125 C35.87693359 111.85130615 35.87886719 112.5776123 35.88085938 113.32592773 C35.93513805 120.24419689 36.38837313 127.10827584 37 134 C36.01 133.01 36.01 133.01 35 132 C35 129.03 35 126.06 35 123 C24.77 123 14.54 123 4 123 C-0.74702108 99.2648946 -1.28318139 75.57476229 -1.25 51.4375 C-1.24913391 50.2581488 -1.24826782 49.07879761 -1.24737549 47.8637085 C-1.21711885 31.88848014 -0.79274823 15.95536644 0 0 Z " fill="#B7DEDD" transform="translate(297,625)"/>
<path d="M0 0 C0.33 0 0.66 0 1 0 C1.41389476 12.01875646 0.14642965 23.86443325 -1 35.8125 C-1.19325758 37.87299543 -1.38597022 39.93354205 -1.578125 41.99414062 C-2.04580473 46.99670586 -2.52084693 51.9985212 -3 57 C-3.33 57 -3.66 57 -4 57 C-4 55.35 -4 53.7 -4 52 C-15.55 52 -27.1 52 -39 52 C-39.33 53.32 -39.66 54.64 -40 56 C-40.14366937 49.72227303 -39.64560613 43.98337945 -38.5625 37.8125 C-36.77148836 26.90996438 -36.28639289 16.0316644 -36 5 C-23.96057567 4.86126144 -12.01678877 5.26131705 0 6 C0 4.02 0 2.04 0 0 Z " fill="#C3E5E5" transform="translate(883,696)"/>
<path d="M0 0 C11.55 0 23.1 0 35 0 C35 15.98484848 35 15.98484848 30 21 C29.34 21 28.68 21 28 21 C27.77441406 21.68707031 27.54882812 22.37414062 27.31640625 23.08203125 C25.6669943 26.73814617 23.43267533 29.57117777 20.9375 32.6875 C17.67441696 36.64929631 17.67441696 36.64929631 15 41 C4.77 41 -5.46 41 -16 41 C-15.20705465 37.82821861 -14.38286754 35.46162129 -13.00390625 32.55859375 C-12.61009766 31.72779297 -12.21628906 30.89699219 -11.81054688 30.04101562 C-11.39869141 29.18185547 -10.98683594 28.32269531 -10.5625 27.4375 C-10.15451172 26.57447266 -9.74652344 25.71144531 -9.32617188 24.82226562 C-7.68970658 21.38648939 -6.11549206 18.1732381 -4 15 C-3.61500109 13.34450469 -3.27206865 11.6777567 -3 10 C-2.34 10 -1.68 10 -1 10 C-0.67 6.7 -0.34 3.4 0 0 Z " fill="#DFF1F0" transform="translate(844,748)"/>
<path d="M0 0 C-2.60965818 2.85110294 -5.22118113 5.70044682 -7.8359375 8.546875 C-9.78859615 10.67381466 -11.72995073 12.80915359 -13.6640625 14.953125 C-19.81677759 21.74953294 -26.18122191 28.33832834 -32.6260376 34.85720825 C-33.58131349 35.82500604 -34.53409124 36.79527622 -35.48431396 37.76803589 C-36.82701683 39.14057202 -38.18088152 40.50216172 -39.53515625 41.86328125 C-40.322854 42.66032471 -41.11055176 43.45736816 -41.92211914 44.27856445 C-44 46 -44 46 -47 46 C-46.55378808 40.92727498 -45.85689019 36.1430988 -44.53125 31.2109375 C-43.90219359 28.59295273 -43.48134493 25.97216532 -43.0625 23.3125 C-40.14228723 5.14228723 -40.14228723 5.14228723 -38 3 C-35.66702567 2.95907063 -33.33294775 2.95758277 -31 3 C-31 2.34 -31 1.68 -31 1 C-26.90708618 0.68963147 -22.81369926 0.38665985 -18.71972656 0.09057617 C-17.32667226 -0.01122395 -15.93376486 -0.11505525 -14.54101562 -0.22094727 C-12.54076143 -0.37267595 -10.53991485 -0.51653071 -8.5390625 -0.66015625 C-6.73236084 -0.79369507 -6.73236084 -0.79369507 -4.88916016 -0.92993164 C-2 -1 -2 -1 0 0 Z " fill="#FAFAFA" transform="translate(759,1155)"/>
<path d="M0 0 C1.54003891 3.9685618 0.41138009 6.89432767 -0.75 10.875 C-2.17727548 15.87411449 -3.4005876 20.82476987 -4.375 25.9375 C-5.62117352 32.00312914 -7.54337079 37.59047767 -9.84326172 43.32006836 C-11.36763553 47.14086938 -12.51735118 50.88688505 -13.46166992 54.88916016 C-14.4659638 58.82708528 -15.8161455 62.65484849 -17.125 66.5 C-17.40214844 67.32242188 -17.67929687 68.14484375 -17.96484375 68.9921875 C-18.6404565 70.99572877 -19.31983337 72.99800011 -20 75 C-21.231394 71.30581799 -20.64432764 68.7943739 -20 65 C-20.7425 64.71125 -21.485 64.4225 -22.25 64.125 C-24.56739797 63.17697356 -26.77917115 62.15154089 -29 61 C-29 60.34 -29 59.68 -29 59 C-30.1446875 58.566875 -30.1446875 58.566875 -31.3125 58.125 C-34 57 -34 57 -37 55 C-36.52768059 50.10084379 -34.059103 46.87897952 -31.1875 43.0625 C-30.30510512 41.86653748 -29.4235855 40.66992865 -28.54296875 39.47265625 C-28.11419434 38.89660645 -27.68541992 38.32055664 -27.24365234 37.72705078 C-26.02893825 36.04018634 -24.91245563 34.31449297 -23.80078125 32.55859375 C-23.20652344 31.71425781 -22.61226562 30.86992188 -22 30 C-21.34 30 -20.68 30 -20 30 C-19.87923096 29.40687012 -19.75846191 28.81374023 -19.6340332 28.20263672 C-18.62571812 24.69974157 -16.33294443 22.01628563 -14.1875 19.125 C-13.30508158 17.9199352 -12.42356176 16.71421185 -11.54296875 15.5078125 C-11.11419434 14.92547852 -10.68541992 14.34314453 -10.24365234 13.74316406 C-9.03379684 12.0473713 -7.91508207 10.31421861 -6.80078125 8.5546875 C-5.90939453 7.29011719 -5.90939453 7.29011719 -5 6 C-4.34 6 -3.68 6 -3 6 C-2.690625 5.38125 -2.38125 4.7625 -2.0625 4.125 C-1.375 2.75 -0.6875 1.375 0 0 Z " fill="#1E2C2C" transform="translate(877,763)"/>
<path d="M0 0 C0.99 0.495 0.99 0.495 2 1 C-23 26 -23 26 -25.67578125 28.640625 C-28.02313904 30.92761483 -28.02313904 30.92761483 -29.875 33.4375 C-32.08901259 36.10733871 -34.44395438 38.18856599 -37.12109375 40.375 C-39.53807447 42.4653617 -41.74375062 44.7371534 -44 47 C-46.08495794 48.97929089 -48.19671339 50.92875057 -50.3125 52.875 C-51.17452026 53.66934448 -51.17452026 53.66934448 -52.05395508 54.47973633 C-55.66511639 57.79822437 -59.30842958 61.07173881 -63.02734375 64.26953125 C-64.56295019 65.61660779 -66.07056941 66.99561325 -67.56640625 68.38671875 C-68.89478516 69.61841797 -68.89478516 69.61841797 -70.25 70.875 C-71.05953125 71.63554688 -71.8690625 72.39609375 -72.703125 73.1796875 C-74.91851206 74.93541942 -76.24120956 75.60769494 -79 76 C-77.52292634 72.10589671 -75.56811405 70.99150552 -72 69 C-69.01922682 66.85995772 -66.66285574 64.65101443 -64.375 61.8125 C-60.94893259 57.6782016 -56.85620751 54.5314695 -52.671875 51.1953125 C-49.8465794 48.87394389 -47.30808331 46.41235999 -44.77978516 43.77796936 C-43.02555134 42.02552527 -41.20690768 40.41851681 -39.3203125 38.81030273 C-34.87435493 34.94502998 -30.71200421 30.83922972 -26.5625 26.66015625 C-25.41418701 25.50972084 -25.41418701 25.50972084 -24.24267578 24.33604431 C-21.82606803 21.91389119 -19.41298274 19.48826388 -17 17.0625 C-15.35049314 15.40797107 -13.70075571 13.75367198 -12.05078125 12.09960938 C-8.03118629 8.06905798 -4.01446831 4.03565728 0 0 Z " fill="#A0A4A4" transform="translate(746,1187)"/>
<path d="M0 0 C3.00682164 1.3270986 4.87171825 2.69045789 6.98828125 5.1953125 C7.52614258 5.82477783 8.06400391 6.45424316 8.61816406 7.1027832 C9.17729492 7.77011475 9.73642578 8.43744629 10.3125 9.125 C11.48040966 10.49614408 12.64837781 11.86723835 13.81640625 13.23828125 C14.37086426 13.89393066 14.92532227 14.54958008 15.49658203 15.22509766 C20.48596881 21.11545846 25.65065615 26.84946712 30.828125 32.57421875 C32.66796248 34.62914514 34.46323495 36.71172426 36.25 38.8125 C41.49447587 44.85423586 47.30797005 50.38500504 53 56 C50 56 50 56 47.6875 53.8125 C46.800625 52.884375 45.91375 51.95625 45 51 C44.01 50.175 43.02 49.35 42 48.5 C36.11827795 43.59856496 31.61306563 38.06225411 27 32 C24.88996347 29.26936449 22.84683729 26.85048402 20.375 24.4375 C18.29018101 22.29781736 17.11188358 20.72916878 16 18 C15.34 18 14.68 18 14 18 C12.50370821 16.3214487 11.07707339 14.58041102 9.6875 12.8125 C7.29902741 9.7833166 4.9640178 6.96472235 2.20703125 4.26171875 C0 2 0 2 0 0 Z " fill="#9A9A9A" transform="translate(439,1197)"/>
<path d="M0 0 C-3.99300693 2.48888035 -8.1255194 4.60343149 -12.35546875 6.65234375 C-13.05714676 6.99374893 -13.75882477 7.33515411 -14.48176575 7.68690491 C-15.96293676 8.40662965 -17.44469428 9.12514847 -18.92700195 9.8425293 C-21.16500397 10.92660307 -23.39996602 12.01676474 -25.63476562 13.10742188 C-43.33609957 21.71439289 -43.33609957 21.71439289 -48 23 C-48.66 22.67 -49.32 22.34 -50 22 C-48.58957044 21.15615325 -47.17135868 20.32530504 -45.75 19.5 C-44.96109375 19.0359375 -44.1721875 18.571875 -43.359375 18.09375 C-41 17 -41 17 -37 17 C-37 16.34 -37 15.68 -37 15 C-36.030625 14.5875 -35.06125 14.175 -34.0625 13.75 C-32.70809214 13.1672269 -31.35394148 12.58385581 -30 12 C-29.34773437 11.7215625 -28.69546875 11.443125 -28.0234375 11.15625 C-21.97671775 8.52921071 -16.10795484 5.57493702 -10.234375 2.5859375 C-2.45609756 -1.22804878 -2.45609756 -1.22804878 0 0 Z " fill="#759A99" transform="translate(579,478)"/>
<path d="M0 0 C3.1857029 1.39330742 5.19822217 3.02896738 7.5625 5.5625 C9.8343494 7.99626295 10.76779382 8.92259794 14 10 C15.33777484 11.66310373 16.67052344 13.33025522 18 15 C19.68086756 16.37381144 21.41375675 17.68589762 23.1875 18.9375 C24.1465625 19.61941406 25.105625 20.30132813 26.09375 21.00390625 C29.48849972 23.33551526 32.92877716 25.58581825 36.41796875 27.7734375 C37.20107422 28.38058594 37.20107422 28.38058594 38 29 C38 29.66 38 30.32 38 31 C33.40129705 29.71773392 30.42626844 28.03735886 26.8125 24.9375 C25.86117187 24.13183594 24.90984375 23.32617188 23.9296875 22.49609375 C22.96289062 21.67238281 21.99609375 20.84867188 21 20 C19.14854229 18.4966576 17.29442359 16.99658572 15.4375 15.5 C4.08948513 6.19593593 4.08948513 6.19593593 0 2 C0 1.34 0 0.68 0 0 Z " fill="#999999" transform="translate(494,1256)"/>
<path d="M0 0 C2.33682614 1.996039 4.67003871 3.99596902 7 6 C7.67160156 6.57621094 8.34320313 7.15242188 9.03515625 7.74609375 C13.19791213 11.34739893 17.15597718 15.05987661 21 19 C20.67 19.99 20.34 20.98 20 22 C18.62437146 20.71034824 17.29233607 19.37310707 16 18 C16 17.34 16 16.68 16 16 C15.13375 15.62875 15.13375 15.62875 14.25 15.25 C11.67060021 13.81700012 9.93878408 12.21575324 8 10 C8 9.34 8 8.68 8 8 C7.4225 7.7525 6.845 7.505 6.25 7.25 C3.67060021 5.81700012 1.93878408 4.21575324 0 2 C0 1.34 0 0.68 0 0 Z " fill="#9C9C9C" transform="translate(392,1145)"/>
<path d="M0 0 C0 0.99 0 1.98 0 3 C-1.40527344 4.39453125 -1.40527344 4.39453125 -3.359375 5.8125 C-4.06320312 6.33070312 -4.76703125 6.84890625 -5.4921875 7.3828125 C-6.23726562 7.91648437 -6.98234375 8.45015625 -7.75 9 C-8.84441406 9.80050781 -8.84441406 9.80050781 -9.9609375 10.6171875 C-11.3297921 11.61769577 -12.70156629 12.6142304 -14.07714844 13.60546875 C-15.44660904 14.59865806 -16.79145928 15.62616142 -18.11816406 16.67578125 C-20 18 -20 18 -22 18 C-20.68481156 14.05443469 -18.9845317 13.44983062 -15.5 11.25 C-10.09626529 7.75954935 -5.00133969 4.04148662 0 0 Z " fill="#939393" transform="translate(666,1263)"/>
<path d="M0 0 C-3.99305013 1.68373614 -7.99443239 3.34627987 -12 5 C-13.08474609 5.46019531 -13.08474609 5.46019531 -14.19140625 5.9296875 C-19.63734376 8.13534904 -25.21037007 9.09537032 -31 10 C-29.25244202 7.5034886 -27.73198112 6.17349725 -24.7421875 5.46484375 C-22.88218522 5.18557227 -21.02144698 4.91117601 -19.16015625 4.640625 C-14.4390553 3.68356622 -10.16817181 1.81093869 -5.75 -0.07421875 C-3 -1 -3 -1 0 0 Z " fill="#678887" transform="translate(675,502)"/>
<path d="M0 0 C0.33 0.99 0.66 1.98 1 3 C0.53851562 3.40089844 0.07703125 3.80179688 -0.3984375 4.21484375 C-1.05070313 4.78332031 -1.70296875 5.35179687 -2.375 5.9375 C-3.09945312 6.56785156 -3.82390625 7.19820312 -4.5703125 7.84765625 C-6.2717921 9.35491551 -7.95255627 10.88573516 -9.6171875 12.43359375 C-10.48601563 13.23925781 -11.35484375 14.04492188 -12.25 14.875 C-13.46429687 16.01582031 -13.46429687 16.01582031 -14.703125 17.1796875 C-16.91851206 18.93541942 -18.24120956 19.60769494 -21 20 C-19.52292634 16.10589671 -17.56811405 14.99150552 -14 13 C-10.19876875 10.2709109 -7.34992136 7.20071347 -4.4296875 3.5859375 C-3 2 -3 2 0 0 Z " fill="#959898" transform="translate(688,1243)"/>
<path d="M0 0 C3.36335594 1.45745424 5.54534005 3.31117854 8.109375 5.9140625 C8.86347656 6.67460938 9.61757813 7.43515625 10.39453125 8.21875 C11.17183594 9.0128125 11.94914062 9.806875 12.75 10.625 C13.54277344 11.42679688 14.33554687 12.22859375 15.15234375 13.0546875 C17.10614493 15.03202846 19.05512103 17.01388909 21 19 C18 19 18 19 15.6875 16.8125 C14.800625 15.884375 13.91375 14.95625 13 14 C12.01 13.175 11.02 12.35 10 11.5 C1.95327103 4.79439252 1.95327103 4.79439252 0 0 Z " fill="#CDDEDE" transform="translate(471,1234)"/>
<path d="M0 0 C0.66 0.33 1.32 0.66 2 1 C-4.6 7.6 -11.2 14.2 -18 21 C-18 16.04098113 -13.95656278 13.00826887 -10.6875 9.5625 C-7.22317894 6.25931015 -3.62679432 3.1228229 0 0 Z " fill="#9BD6D4" transform="translate(661,649)"/>
<path d="M0 0 C0.66 0.33 1.32 0.66 2 1 C-0.95025726 4.00803572 -3.91149669 7.0050179 -6.875 10 C-7.71675781 10.85851562 -8.55851562 11.71703125 -9.42578125 12.6015625 C-10.23144531 13.41367187 -11.03710938 14.22578125 -11.8671875 15.0625 C-12.61081543 15.81660156 -13.35444336 16.57070313 -14.12060547 17.34765625 C-16 19 -16 19 -18 19 C-14.87066147 12.02734765 -8.28508451 7.27634689 -2.6015625 2.3828125 C-1.71147181 1.61429517 -0.83152881 0.83152881 0 0 Z " fill="#9ED7D5" transform="translate(374,648)"/>
<path d="M0 0 C0.66 0 1.32 0 2 0 C2 0.66 2 1.32 2 2 C2.99 2.33 3.98 2.66 5 3 C5 3.66 5 4.32 5 5 C5.66 5 6.32 5 7 5 C8.63181401 6.7071731 10.18330492 8.49188084 11.6875 10.3125 C12.51636719 11.29863281 13.34523438 12.28476563 14.19921875 13.30078125 C15.09060547 14.63689453 15.09060547 14.63689453 16 16 C15.67 16.99 15.34 17.98 15 19 C11.57948298 15.7749411 8.8602925 12.50660833 6.19921875 8.63671875 C4.92568294 6.81133317 4.92568294 6.81133317 2.75 4.75 C1 3 1 3 0 0 Z " fill="#929292" transform="translate(423,1178)"/>
<path d="M0 0 C-2.41605225 0.81436587 -4.83279998 1.62655397 -7.25 2.4375 C-8.27287109 2.78264648 -8.27287109 2.78264648 -9.31640625 3.13476562 C-15.26175247 5.126168 -19.70643754 6.12103005 -26 6 C-24.68 5.67 -23.36 5.34 -22 5 C-22 4.34 -22 3.68 -22 3 C-20.69675781 2.81824219 -20.69675781 2.81824219 -19.3671875 2.6328125 C-18.21476562 2.46523438 -17.06234375 2.29765625 -15.875 2.125 C-14.16957031 1.88136719 -14.16957031 1.88136719 -12.4296875 1.6328125 C-8.985836 1.08786574 -8.985836 1.08786574 -5.7578125 -0.1328125 C-3 -1 -3 -1 0 0 Z " fill="#779998" transform="translate(405,545)"/>
<path d="M0 0 C2.82863975 5.3363834 4.37974335 10.92410633 4 17 C3.01 17.33 2.02 17.66 1 18 C-0.0712828 11.97403427 -0.09945415 6.11090483 0 0 Z " fill="#212F2E" transform="translate(329,859)"/>
<path d="M0 0 C-2.53456837 1.34855894 -5.07624152 2.67875217 -7.625 4 C-8.33785156 4.3815625 -9.05070313 4.763125 -9.78515625 5.15625 C-14.0393071 7.34186878 -17.0924454 8.49539983 -22 8 C-18.76432983 5.04569245 -15.34428368 4.03162061 -11.25 2.765625 C-8.75180932 1.97822524 -8.75180932 1.97822524 -5.625 0.25 C-3 -1 -3 -1 0 0 Z " fill="#678A89" transform="translate(524,503)"/>
<path d="M0 0 C-2.01860909 6.05582728 -8.2094379 9.98255455 -13 14 C-12.51061681 9.72538761 -10.04257174 7.67448934 -7.0625 4.75 C-6.16660156 3.85796875 -5.27070312 2.9659375 -4.34765625 2.046875 C-2 0 -2 0 0 0 Z " fill="#929292" transform="translate(761,1173)"/>
<path d="M0 0 C-1.46966358 3.39859703 -3.38037514 5.64963709 -6 8.25 C-6.70125 8.95640625 -7.4025 9.6628125 -8.125 10.390625 C-10 12 -10 12 -12 12 C-10.53033642 8.60140297 -8.61962486 6.35036291 -6 3.75 C-5.29875 3.04359375 -4.5975 2.3371875 -3.875 1.609375 C-2 0 -2 0 0 0 Z " fill="#1B2221" transform="translate(783,1131)"/>
<path d="M0 0 C4.04809035 1.58897004 6.37563353 4.30625948 9.25 7.5 C9.70890625 7.99886719 10.1678125 8.49773437 10.640625 9.01171875 C14 12.74102493 14 12.74102493 14 15 C13.34 15 12.68 15 12 15 C10.64864497 13.46729429 9.36746113 11.87223227 8.125 10.25 C5.57687671 6.93647085 2.95994915 3.94667583 0 1 C0 0.67 0 0.34 0 0 Z " fill="#9FA0A0" transform="translate(458,1219)"/>
<path d="M0 0 C0.66 0.33 1.32 0.66 2 1 C-0.24307028 2.20250158 -2.4928791 3.3869162 -4.75 4.5625 C-5.70132813 5.07586914 -5.70132813 5.07586914 -6.671875 5.59960938 C-11.45095438 8.06382218 -11.45095438 8.06382218 -14.453125 7.71484375 C-14.96359375 7.47894531 -15.4740625 7.24304688 -16 7 C-14.38305196 6.311937 -12.76599225 5.62413549 -11.1484375 4.9375 C-9.62307381 4.27188675 -8.10830853 3.58174733 -6.6015625 2.875 C-5.80492187 2.50375 -5.00828125 2.1325 -4.1875 1.75 C-3.06408203 1.21632813 -3.06408203 1.21632813 -1.91796875 0.671875 C-1.28503906 0.45015625 -0.65210938 0.2284375 0 0 Z " fill="#668887" transform="translate(749,472)"/>
<path d="M0 0 C0.66 0.33 1.32 0.66 2 1 C-1.89095157 4.40458262 -6.11365765 7.24177968 -11 9 C-11.66 8.67 -12.32 8.34 -13 8 C-12.31292969 7.59007812 -11.62585938 7.18015625 -10.91796875 6.7578125 C-10.01691406 6.21898437 -9.11585938 5.68015625 -8.1875 5.125 C-7.29417969 4.59132813 -6.40085937 4.05765625 -5.48046875 3.5078125 C-3.62705276 2.38116908 -1.80470083 1.20313389 0 0 Z " fill="#9F9F9F" transform="translate(635,1285)"/>
<path d="M0 0 C4.2502731 2.02393957 8.20686071 4.20030195 12 7 C12 7.66 12 8.32 12 9 C6.80474854 7.6393389 3.82444243 5.64232612 0 2 C0 1.34 0 0.68 0 0 Z " fill="#939393" transform="translate(520,1278)"/>
<path d="M0 0 C-1.72440365 0.98753064 -3.45475026 1.96468806 -5.1875 2.9375 C-6.15042969 3.48277344 -7.11335937 4.02804687 -8.10546875 4.58984375 C-10.80662842 5.90579333 -13.04356101 6.57301887 -16 7 C-14.68 6.34 -13.36 5.68 -12 5 C-12 4.34 -12 3.68 -12 3 C-10.75823305 2.29773859 -9.50614401 1.61370891 -8.25 0.9375 C-7.55390625 0.55464844 -6.8578125 0.17179687 -6.140625 -0.22265625 C-3.63859372 -1.1312406 -2.4667645 -0.88336837 0 0 Z " fill="#779E9D" transform="translate(851,427)"/>
<path d="M0 0 C0.66 0.33 1.32 0.66 2 1 C0.87895467 2.31587941 -0.24696965 3.62760353 -1.375 4.9375 C-2.00148438 5.66839844 -2.62796875 6.39929687 -3.2734375 7.15234375 C-5 9 -5 9 -7 10 C-6.42424336 6.64749299 -5.40693737 5.06181371 -2.9375 2.75 C-2.38964844 2.22921875 -1.84179688 1.7084375 -1.27734375 1.171875 C-0.64505859 0.59179688 -0.64505859 0.59179688 0 0 Z " fill="#9C9C9C" transform="translate(768,1163)"/>
<path d="M0 0 C-1.76371818 1.03307771 -3.53625033 2.05112049 -5.3125 3.0625 C-6.79169922 3.91521484 -6.79169922 3.91521484 -8.30078125 4.78515625 C-11 6 -11 6 -14 5 C-13.34 5 -12.68 5 -12 5 C-12 4.34 -12 3.68 -12 3 C-10.75823305 2.29773859 -9.50614401 1.61370891 -8.25 0.9375 C-7.20585938 0.36322266 -7.20585938 0.36322266 -6.140625 -0.22265625 C-3.63859372 -1.1312406 -2.4667645 -0.88336837 0 0 Z " fill="#729897" transform="translate(835,435)"/>
<path d="M0 0 C5.31027254 1.46032495 9.46330032 3.98320986 14 7 C13.01 7.495 13.01 7.495 12 8 C9.6875 7.109375 9.6875 7.109375 7 5.75 C5.6696875 5.09257813 5.6696875 5.09257813 4.3125 4.421875 C2 3 2 3 0 0 Z " fill="#969696" transform="translate(532,1287)"/>
<path d="M0 0 C0 3 0 3 -1.75 4.82421875 C-2.4925 5.43910156 -3.235 6.05398438 -4 6.6875 C-4.7425 7.31011719 -5.485 7.93273438 -6.25 8.57421875 C-6.8275 9.04472656 -7.405 9.51523438 -8 10 C-8.66 9.67 -9.32 9.34 -10 9 C-7.85177953 5.7776693 -6.2725249 4.91562433 -3 3 C-1.24850835 1.41754725 -1.24850835 1.41754725 0 0 Z " fill="#9D9D9D" transform="translate(677,1253)"/>
<path d="M0 0 C0.66 0.33 1.32 0.66 2 1 C0.21475351 2.19713017 -1.5784028 3.38247279 -3.375 4.5625 C-4.87160156 5.55443359 -4.87160156 5.55443359 -6.3984375 6.56640625 C-7.25695312 7.03949219 -8.11546875 7.51257813 -9 8 C-9.66 7.67 -10.32 7.34 -11 7 C-9.35 6.34 -7.7 5.68 -6 5 C-6 4.34 -6 3.68 -6 3 C-4.03533587 1.93224776 -2.03144641 0.93446535 0 0 Z " fill="#80A7A6" transform="translate(612,458)"/>
<path d="M0 0 C0 0.99 0 1.98 0 3 C-1.96875 4.60546875 -1.96875 4.60546875 -4.5 6.1875 C-5.3353125 6.71730469 -6.170625 7.24710938 -7.03125 7.79296875 C-7.6809375 8.19128906 -8.330625 8.58960938 -9 9 C-7.63783758 5.78034336 -6.27468847 4.18312565 -3.375 2.25 C-2.74335937 1.82203125 -2.11171875 1.3940625 -1.4609375 0.953125 C-0.97882812 0.63859375 -0.49671875 0.3240625 0 0 Z " fill="#A3A3A3" transform="translate(666,1263)"/>
<path d="M0 0 C0.71484375 1.765625 0.71484375 1.765625 1 4 C-0.43359375 5.921875 -0.43359375 5.921875 -2.4375 7.75 C-3.42556641 8.67039062 -3.42556641 8.67039062 -4.43359375 9.609375 C-5.20896484 10.29773438 -5.20896484 10.29773438 -6 11 C-6 8 -6 8 -5 6 C-4.34 6 -3.68 6 -3 6 C-2.690625 5.38125 -2.38125 4.7625 -2.0625 4.125 C-1.375 2.75 -0.6875 1.375 0 0 Z " fill="#3B4B4B" transform="translate(877,763)"/>
<path d="M0 0 C3.94876098 0.56410871 6.75634176 1.65735794 10 4 C10.33 4.99 10.66 5.98 11 7 C9.35 6.67 7.7 6.34 6 6 C6 5.01 6 4.02 6 3 C4.02 2.34 2.04 1.68 0 1 C0 0.67 0 0.34 0 0 Z " fill="#ADD9D8" transform="translate(489,631)"/>
<path d="M0 0 C3.62613199 0.56959153 5.25517741 1.92374534 7.75 4.5625 C8.36359375 5.20316406 8.9771875 5.84382813 9.609375 6.50390625 C10.06828125 6.99761719 10.5271875 7.49132813 11 8 C8 8 8 8 5.5 5.6875 C4.675 4.800625 3.85 3.91375 3 3 C2.401875 2.401875 1.80375 1.80375 1.1875 1.1875 C0.795625 0.795625 0.40375 0.40375 0 0 Z " fill="#C1CECE" transform="translate(481,1245)"/>
<path d="M0 0 C4.20626034 1.50223584 5.73900021 4.28550034 8 8 C4.63820226 6.55922954 2.40843732 4.75249979 0 2 C0 1.34 0 0.68 0 0 Z " fill="#8E8E8E" transform="translate(439,1197)"/>
<path d="M0 0 C3.15133488 1.83827868 6.11964908 3.75972706 9 6 C8.67 6.66 8.34 7.32 8 8 C6.66102417 7.04956626 5.32894573 6.08940853 4 5.125 C3.2575 4.59132813 2.515 4.05765625 1.75 3.5078125 C1.1725 3.01023437 0.595 2.51265625 0 2 C0 1.34 0 0.68 0 0 Z " fill="#9A9A9A" transform="translate(511,1271)"/>
<path d="M0 0 C3.7952131 1.49097658 5.61042731 3.75700849 8 7 C4.66272214 5.82744291 2.22562513 4.81131596 0 2 C0 1.34 0 0.68 0 0 Z " fill="#A9A9A9" transform="translate(494,1256)"/>
<path d="M0 0 C3.80666984 1.44390925 5.26602582 3.34952803 7 7 C6.67 7.66 6.34 8.32 6 9 C4.99105628 8.07213211 3.99309093 7.13231567 3 6.1875 C2.1646875 5.40439453 2.1646875 5.40439453 1.3125 4.60546875 C0 3 0 3 0 0 Z " fill="#B4B4B4" transform="translate(416,1169)"/>
<path d="M0 0 C3.26954202 0.56371414 4.82575883 1.49962266 7 4 C6.67 4.99 6.34 5.98 6 7 C4.62437146 5.71034824 3.29233607 4.37310707 2 3 C2 2.34 2 1.68 2 1 C1.34 0.67 0.68 0.34 0 0 Z " fill="#A9A9A9" transform="translate(406,1160)"/>
</svg>
