<?xml version="1.0" encoding="UTF-8"?>
<svg version="1.1" xmlns="http://www.w3.org/2000/svg" width="1156" height="250">
<path d="M0 0 C0.87398438 0.44601563 1.74796875 0.89203125 2.6484375 1.3515625 C3.62683594 1.85816406 3.62683594 1.85816406 4.625 2.375 C4.625 3.365 4.625 4.355 4.625 5.375 C0.23922895 7.07020938 -4.14955383 8.64786886 -8.6328125 10.06640625 C-22.02845561 14.32154661 -34.73240609 19.3710851 -47.39575195 25.47045898 C-49.375 26.375 -49.375 26.375 -52.375 27.375 C-52.375 28.035 -52.375 28.695 -52.375 29.375 C-51.42367187 29.560625 -51.42367187 29.560625 -50.453125 29.75 C-42.65136201 31.47414652 -35.54363818 34.21420974 -28.171875 37.2487793 C-21.00683363 40.17840441 -13.75651928 42.68025836 -6.390625 45.05078125 C-2.33298073 46.36209312 1.63880098 47.8610925 5.625 49.375 C7.11 49.87 7.11 49.87 8.625 50.375 C8.295 51.695 7.965 53.015 7.625 54.375 C4.16 54.87 4.16 54.87 0.625 55.375 C0.955 56.365 1.285 57.355 1.625 58.375 C0.1875 60.5625 0.1875 60.5625 -1.375 62.375 C-6.7876117 61.8673832 -11.03211548 60.93509153 -16.0625 58.75 C-23.23465331 55.71788529 -30.54273616 53.25725766 -37.96557617 50.91162109 C-42.70081252 49.38540654 -47.07140681 47.64084527 -51.47875977 45.33447266 C-54.53039819 43.79038369 -57.68480057 42.60818634 -60.875 41.375 C-65.41345812 39.59869545 -69.81268253 37.72479224 -74.125 35.453125 C-79.72527412 32.76966032 -85.59339606 30.63343904 -91.375 28.375 C-91.375 27.715 -91.375 27.055 -91.375 26.375 C-92.035 26.045 -92.695 25.715 -93.375 25.375 C-93.045 24.715 -92.715 24.055 -92.375 23.375 C-90.70099873 22.91233633 -89.02598661 22.45297285 -87.34570312 22.01367188 C-83.97250326 20.9204743 -81.12727072 18.97757109 -78.125 17.125 C-71.27470909 13.05884142 -64.41314237 10.47292935 -56.75878906 8.31542969 C-52.48884553 7.10709183 -49.17914606 5.70755826 -45.375 3.375 C-42.78989399 2.45734332 -40.25608001 1.6286775 -37.625 0.875 C-36.88854248 0.66286865 -36.15208496 0.4507373 -35.39331055 0.23217773 C-30.03519983 -1.26195998 -24.65162775 -2.52217246 -19.1875 -3.5625 C-18.49366211 -3.70300781 -17.79982422 -3.84351563 -17.08496094 -3.98828125 C-10.36557528 -5.1676956 -5.87656617 -3.01769614 0 0 Z " fill="#FFFFFF" transform="translate(93.375,5.625)"/>
<path d="M0 0 C0.33 0.99 0.66 1.98 1 3 C1.99 3.33 2.98 3.66 4 4 C3.731875 4.556875 3.46375 5.11375 3.1875 5.6875 C2.72188823 8.18375242 2.72188823 8.18375242 4.8125 10.3125 C8.15015183 13.34162939 11.90900914 15.82276287 15.6328125 18.34765625 C18 20 18 20 20.875 22.5 C22.82323607 24.22059905 22.82323607 24.22059905 24.86328125 23.82421875 C27.57874482 22.77675474 29.18590455 21.2955597 31.3125 19.3125 C32.09753906 18.59835938 32.88257813 17.88421875 33.69140625 17.1484375 C35.1275601 15.8119153 36.55397415 14.46474864 37.96484375 13.1015625 C42.26927986 9.08911221 42.26927986 9.08911221 45.5625 8.6875 C49.17248876 10.6313401 52.01261417 13.39132574 54 17 C53.53962389 20.54956656 52.1532669 23.15213087 50 26 C48.00531649 27.33672945 45.95259488 28.52744965 43.875 29.73046875 C41.40737472 31.4012567 40.22744843 33.31495655 39 36 C39.99 36.66 40.98 37.32 42 38 C42 38.99 42 39.98 42 41 C35.25 40.125 35.25 40.125 33 39 C33 39.99 33 40.98 33 42 C31.671875 43.47265625 31.671875 43.47265625 29.75 45.0625 C29.02296875 45.67222656 28.2959375 46.28195313 27.546875 46.91015625 C26.70640625 47.59980469 25.8659375 48.28945312 25 49 C23.51620437 50.23583513 22.03245103 51.47172228 20.55004883 52.70922852 C19.51571746 53.57054683 18.47908475 54.42910893 17.44018555 55.28491211 C13.7591591 58.32428639 10.24081346 61.49549655 6.81640625 64.8203125 C4.37917009 66.40320566 2.8561182 66.35027865 0 66 C-3.3125 64 -3.3125 64 -6 62 C-5.54269548 57.39486322 -4.09009219 55.76971684 -0.5625 52.875 C9.74494401 44.14519903 9.74494401 44.14519903 17 33 C16.23816406 32.50371094 15.47632813 32.00742187 14.69140625 31.49609375 C8.98631984 27.74256 3.43431638 23.9132232 -1.90625 19.65625 C-3.98642765 18.01073634 -6.1092867 16.4405963 -8.25 14.875 C-11.44860938 12.46964575 -14.4088397 10.07700286 -17 7 C-17 5.68 -17 4.36 -17 3 C-10.77764931 -1.29226969 -7.17329919 -3.07427108 0 0 Z " fill="#FFFFFF" transform="translate(102,20)"/>
<path d="M0 0 C2.625 0.9375 2.625 0.9375 5 2 C4.56870815 8.03024428 2.67177792 11.89044151 -0.5625 16.9375 C-0.98724609 17.62134766 -1.41199219 18.30519531 -1.84960938 19.00976562 C-2.88904982 20.6798778 -3.94305216 22.34091218 -5 24 C3.95949967 27.77066466 12.96741116 31.40917575 22 35 C21.7890625 37.87109375 21.7890625 37.87109375 21 41 C18.9609375 42.28515625 18.9609375 42.28515625 16.375 43.0625 C12.82639437 44.2656753 10.04378627 45.4709439 7.0625 47.75 C4 50 4 50 1 50 C1 50.66 1 51.32 1 52 C-1.51712189 53.29935464 -4.03829087 54.58954372 -6.5625 55.875 C-7.26697266 56.23980469 -7.97144531 56.60460937 -8.69726562 56.98046875 C-13.08442466 59.20437425 -17.24644225 60.75032255 -22 62 C-23.051875 62.5878125 -23.051875 62.5878125 -24.125 63.1875 C-26.69009115 64.2990395 -28.36477202 63.73200777 -31 63 C-32.40957131 58.77128606 -30.59518804 56.12428578 -28.875 52.25 C-26.44763196 46.61958765 -24.30595224 41.04775442 -22.5 35.1875 C-19.80074455 26.80371983 -15.72993793 18.75879419 -10 12 C-9.34 12 -8.68 12 -8 12 C-7.731875 11.236875 -7.46375 10.47375 -7.1875 9.6875 C-6.03396359 7.07686496 -5.01370135 5.92614911 -3 4 C-2.67 3.01 -2.34 2.02 -2 1 C-1.34 0.67 -0.68 0.34 0 0 Z M-10 31 C-10.33 33.97 -10.66 36.94 -11 40 C-10.34 40 -9.68 40 -9 40 C-10.875 44.75 -10.875 44.75 -12 47 C-7.98696492 45.443154 -4.0907072 43.68861143 -0.1875 41.875 C0.97394531 41.33617187 2.13539063 40.79734375 3.33203125 40.2421875 C4.21246094 39.83226562 5.09289062 39.42234375 6 39 C3.10414095 36.70351643 0.1827969 34.95652443 -3.125 33.3125 C-3.99382812 32.87550781 -4.86265625 32.43851563 -5.7578125 31.98828125 C-7.89663085 30.86555793 -7.89663085 30.86555793 -10 31 Z " fill="#FFFFFF" transform="translate(176,13)"/>
<path d="M0 0 C2.97609041 1.22181347 4.4184075 2.68131002 6.5703125 5.06640625 C10.75307325 9.48154259 15.2260003 12.88087052 20.2578125 16.27734375 C22.4453125 18.00390625 22.4453125 18.00390625 23.4453125 21.00390625 C23.1153125 21.99390625 22.7853125 22.98390625 22.4453125 24.00390625 C19.50390625 25.171875 19.50390625 25.171875 15.8828125 26.19140625 C14.68527344 26.53558594 13.48773438 26.87976563 12.25390625 27.234375 C10.86365234 27.61529297 10.86365234 27.61529297 9.4453125 28.00390625 C9.10908137 31.0956462 9.10908137 31.0956462 11.30859375 33.0546875 C12.11683594 33.80105469 12.92507813 34.54742187 13.7578125 35.31640625 C19.44200229 40.83997529 21.64971149 45.04789614 22.4453125 53.00390625 C18.6953125 54.12890625 18.6953125 54.12890625 16.4453125 53.00390625 C16.4453125 52.34390625 16.4453125 51.68390625 16.4453125 51.00390625 C15.85105469 50.74609375 15.25679688 50.48828125 14.64453125 50.22265625 C12.2678055 48.90553648 10.97745677 47.59046691 9.2578125 45.50390625 C8.74863281 44.89546875 8.23945313 44.28703125 7.71484375 43.66015625 C6.4453125 42.00390625 6.4453125 42.00390625 5.4453125 40.00390625 C5.7753125 45.28390625 6.1053125 50.56390625 6.4453125 56.00390625 C2.4453125 58.00390625 2.4453125 58.00390625 -1.5546875 58.00390625 C-2.20572901 55.6510725 -2.85060872 53.29682176 -3.4921875 50.94140625 C-3.67458984 50.28462891 -3.85699219 49.62785156 -4.04492188 48.95117188 C-5.99840825 41.74103127 -6.68116117 34.88643586 -6.5546875 27.44140625 C-6.45867852 20.44646658 -6.86452887 13.76351479 -7.82421875 6.82421875 C-7.5546875 4.00390625 -7.5546875 4.00390625 -5.37890625 1.55859375 C-2.5546875 0.00390625 -2.5546875 0.00390625 0 0 Z M2.4453125 13.00390625 C2.7753125 15.64390625 3.1053125 18.28390625 3.4453125 21.00390625 C6.36048542 19.92989517 8.22341426 19.22580449 10.4453125 17.00390625 C6.77551046 14.09218836 6.77551046 14.09218836 2.4453125 13.00390625 Z " fill="#FFFFFF" transform="translate(250.5546875,21.99609375)"/>
<path d="M0 0 C0.80566406 0.00322266 1.61132812 0.00644531 2.44140625 0.00976562 C3.70404297 0.02233398 3.70404297 0.02233398 4.9921875 0.03515625 C6.26642578 0.04192383 6.26642578 0.04192383 7.56640625 0.04882812 C9.66669659 0.06062751 11.7669508 0.07856319 13.8671875 0.09765625 C13.8671875 1.74765625 13.8671875 3.39765625 13.8671875 5.09765625 C12.5471875 5.09765625 11.2271875 5.09765625 9.8671875 5.09765625 C9.8671875 6.74765625 9.8671875 8.39765625 9.8671875 10.09765625 C4.19970593 12.93139703 -0.83013811 13.72989457 -7.1328125 14.09765625 C-7.4628125 15.41765625 -7.7928125 16.73765625 -8.1328125 18.09765625 C-7.27731812 18.04436157 -7.27731812 18.04436157 -6.40454102 17.98999023 C-3.83509586 17.83295548 -1.26524738 17.68395162 1.3046875 17.53515625 C2.20251953 17.47908203 3.10035156 17.42300781 4.02539062 17.36523438 C4.87939453 17.31689453 5.73339844 17.26855469 6.61328125 17.21875 C7.40404053 17.17161865 8.1947998 17.1244873 9.00952148 17.07592773 C10.8671875 17.09765625 10.8671875 17.09765625 11.8671875 18.09765625 C11.5371875 20.40765625 11.2071875 22.71765625 10.8671875 25.09765625 C4.2671875 25.75765625 -2.3328125 26.41765625 -9.1328125 27.09765625 C-9.1328125 29.40765625 -9.1328125 31.71765625 -9.1328125 34.09765625 C-7.91658203 33.989375 -7.91658203 33.989375 -6.67578125 33.87890625 C0.52754707 33.27513484 7.63970931 32.96730093 14.8671875 33.09765625 C13.9921875 39.84765625 13.9921875 39.84765625 12.8671875 42.09765625 C4.72878784 42.64346509 -3.41452738 43.16479111 -11.5703125 43.34765625 C-12.60027344 43.3734375 -13.63023437 43.39921875 -14.69140625 43.42578125 C-15.49707031 43.3175 -16.30273438 43.20921875 -17.1328125 43.09765625 C-19.40230396 39.69341906 -19.37962729 38.49618618 -19.36328125 34.50390625 C-19.36038086 32.83328125 -19.36038086 32.83328125 -19.35742188 31.12890625 C-19.34517578 29.96359375 -19.33292969 28.79828125 -19.3203125 27.59765625 C-19.31966797 26.46328125 -19.31902344 25.32890625 -19.31835938 24.16015625 C-19.28187041 17.08940542 -18.90476428 10.1260596 -18.1328125 3.09765625 C-13.90284982 1.24113218 -10.75539756 1.01043766 -6.1328125 1.09765625 C-3.8362755 -0.05061225 -2.54968083 -0.0179555 0 0 Z " fill="#FFFFFF" transform="translate(223.1328125,30.90234375)"/>
<path d="M0 0 C3.60409919 -0.05800828 7.20807851 -0.09359869 10.8125 -0.125 C11.83666016 -0.14175781 12.86082031 -0.15851562 13.91601562 -0.17578125 C14.89892578 -0.18222656 15.88183594 -0.18867187 16.89453125 -0.1953125 C17.80050049 -0.20578613 18.70646973 -0.21625977 19.63989258 -0.22705078 C22 0 22 0 25 2 C25.9352796 4.95974557 26.11616762 7.90571698 26 11 C25.505 11.94875 25.01 12.8975 24.5 13.875 C22.80185369 17.4128048 23.0082922 18.6995085 23.5 22.5 C23.92908522 26.08871276 24.01166942 27.95915704 23 31.5 C20.45670617 34.67911729 17.84949807 35.95013689 14 37 C10.34284032 37.34257295 6.73139758 37.28530383 3.0625 37.1875 C2.09248047 37.17396484 1.12246094 37.16042969 0.12304688 37.14648438 C-2.25189129 37.11138677 -4.62564378 37.06222275 -7 37 C-8.26333089 33.38485534 -7.73280429 30.85092306 -6.85546875 27.16796875 C-6.59056641 26.03939453 -6.32566406 24.91082031 -6.05273438 23.74804688 C-5.62444336 21.98557617 -5.62444336 21.98557617 -5.1875 20.1875 C-4.91357422 19.02412109 -4.63964844 17.86074219 -4.35742188 16.66210938 C-3.02972672 11.06795976 -1.64852694 5.50849246 0 0 Z M8 9 C7.67 10.65 7.34 12.3 7 14 C9.31 14 11.62 14 14 14 C14.66 12.35 15.32 10.7 16 9 C13.36 9 10.72 9 8 9 Z M5 22 C4.34 24.31 3.68 26.62 3 29 C4.45742463 29.08096803 5.91612807 29.13917774 7.375 29.1875 C8.59316406 29.23970703 8.59316406 29.23970703 9.8359375 29.29296875 C10.55007813 29.19628906 11.26421875 29.09960938 12 29 C14.2773501 26.18490007 14.2773501 26.18490007 14 23 C11.04335481 21.5216774 8.25770263 21.93967217 5 22 Z " fill="#FFFFFF" transform="translate(286,35)"/>
<path d="M0 0 C3.1764106 2.47228017 5.03599866 5.16590024 5.8984375 9.046875 C6.6364494 16.92347477 5.47069878 22.929422 0.5234375 29.296875 C-3.56869236 33.58386818 -7.37733737 35.69476644 -13.25 36.25 C-18.28681867 36.35603829 -21.81914722 36.00378079 -26.1015625 33.046875 C-29.83331553 28.80039742 -30.23184719 23.51883187 -30.1015625 18.046875 C-28.71346342 10.31318012 -25.21681126 5.5131136 -19.1015625 0.671875 C-13.58561622 -2.20126625 -5.67146717 -2.57218957 0 0 Z M-18.1015625 13.046875 C-20.3487901 17.03059665 -20.1766602 19.64874805 -19.1015625 24.046875 C-18.7715625 24.706875 -18.4415625 25.366875 -18.1015625 26.046875 C-17.4415625 26.046875 -16.7815625 26.046875 -16.1015625 26.046875 C-16.1015625 26.706875 -16.1015625 27.366875 -16.1015625 28.046875 C-11.25331382 27.63131083 -9.22119388 25.67239255 -6.1015625 22.046875 C-3.86333951 18.74283153 -3.69026001 15.99537894 -4.1015625 12.046875 C-5.07260038 9.58500921 -5.07260038 9.58500921 -7.1015625 8.046875 C-12.58644993 6.97374485 -14.73368471 8.83702776 -18.1015625 13.046875 Z " fill="#FFFFFF" transform="translate(345.1015625,35.953125)"/>
<path d="M0 0 C3.3 0 6.6 0 10 0 C13 6.625 13 6.625 13 10 C16.69895705 6.40562645 16.69895705 6.40562645 19.625 2.1875 C22.58700106 -0.54065887 23.80862276 -0.3125 27.75 -0.3125 C29.50126074 -0.23227209 31.25215533 -0.13560864 33 0 C32.30756174 3.47676895 31.18973023 4.99437208 28.61328125 7.44921875 C26.56340706 9.41967893 24.58020772 11.43521847 22.625 13.5 C21.91601562 14.2321875 21.20703125 14.964375 20.4765625 15.71875 C18.74354579 17.90318719 18.74354579 17.90318719 19.1484375 20.53515625 C19.93929523 22.82429034 20.82459228 24.82435892 22 26.9375 C23.75018349 30.27933587 24.62099879 33.20998786 25 37 C21.7 37 18.4 37 15 37 C12.96564469 33.27034861 12 31.33094958 12 27 C9.41719591 29.51105953 7.17371142 31.71048097 5.3125 34.8125 C2.49741603 37.47541727 1.5206026 37.3125 -2.25 37.3125 C-3.83473048 37.23234745 -5.41906283 37.1357675 -7 37 C-6.68423915 31.59132214 -3.52468969 28.86488188 0.0625 25.1875 C0.91424805 24.2912793 0.91424805 24.2912793 1.78320312 23.37695312 C3.18009483 21.90962991 4.58890128 20.4536658 6 19 C5.566875 17.96359375 5.13375 16.9271875 4.6875 15.859375 C4.12463375 14.48973379 3.56215395 13.11993372 3 11.75 C2.71382813 11.06808594 2.42765625 10.38617188 2.1328125 9.68359375 C0.70654506 6.18584265 0 3.83099811 0 0 Z " fill="#FFFFFF" transform="translate(356,35)"/>
<path d="M0 0 C2.375 0.5 2.375 0.5 4.1875 1.5625 C6.0843204 4.65731224 5.79673462 6.94537963 5.375 10.5 C3.49698961 14.40048313 2.46224078 16.09228471 -1.625 17.625 C-4.625 17.5 -4.625 17.5 -7.0625 16.0625 C-8.91866816 13.01838422 -8.94598718 10.95937516 -8.30078125 7.47265625 C-6.86552692 3.283041 -4.32593405 0.82398744 0 0 Z M-4.1875 3.625 C-6.17854873 6.22202009 -6.42660759 8.25959064 -6.625 11.5 C-5.80157468 13.81980946 -5.80157468 13.81980946 -4.625 15.5 C-1.65045866 15.17842796 -0.03164722 14.87860258 2.1875 12.8125 C3.6832321 9.89975854 3.59522756 7.73000416 3.375 4.5 C-0.39391841 2.25428484 -0.39391841 2.25428484 -4.1875 3.625 Z " fill="#F7F7F7" transform="translate(344.625,75.5)"/>
<path d="M0 0 C3.96 0 7.92 0 12 0 C10.76780911 4.92876357 8.43056427 8.12465216 5.5625 12.25 C5.05912109 12.99507812 4.55574219 13.74015625 4.03710938 14.5078125 C3.30911133 15.56355469 3.30911133 15.56355469 2.56640625 16.640625 C2.12240479 17.28547852 1.67840332 17.93033203 1.22094727 18.59472656 C0.81803467 19.0584668 0.41512207 19.52220703 0 20 C-0.66 20 -1.32 20 -2 20 C-0.48103632 15.56829827 1.92639809 11.96975924 4.625 8.1875 C5.04523438 7.59001953 5.46546875 6.99253906 5.8984375 6.37695312 C6.92779728 4.91479435 7.9632823 3.45695101 9 2 C7.329375 2.2784375 7.329375 2.2784375 5.625 2.5625 C2 3 2 3 0 2 C0 1.34 0 0.68 0 0 Z " fill="#FFFFFF" transform="translate(367,76)"/>
<path d="M0 0 C3.96 0 7.92 0 12 0 C11.67 1.65 11.34 3.3 11 5 C10.34 5 9.68 5 9 5 C8.7421875 5.71542969 8.484375 6.43085937 8.21875 7.16796875 C6.92615235 10.17160111 5.3722291 12.63505372 3.5 15.3125 C2.8915625 16.19550781 2.283125 17.07851562 1.65625 17.98828125 C1.1096875 18.65214844 0.563125 19.31601563 0 20 C-0.66 20 -1.32 20 -2 20 C-0.51364884 15.78345644 1.61249159 12.37521395 4.125 8.6875 C4.84945313 7.61886719 5.57390625 6.55023438 6.3203125 5.44921875 C7.15175781 4.23685547 7.15175781 4.23685547 8 3 C5.36 2.67 2.72 2.34 0 2 C0 1.34 0 0.68 0 0 Z " fill="#F4F4F4" transform="translate(353,76)"/>
<path d="M0 0 C0.27734375 2.30078125 0.27734375 2.30078125 0 5 C-1.93359375 6.73046875 -1.93359375 6.73046875 -4.4375 8.1875 C-7.8277165 10.01610122 -7.8277165 10.01610122 -10 13 C-7.03 13 -4.06 13 -1 13 C-1 13.33 -1 13.66 -1 14 C-4.63 14 -8.26 14 -12 14 C-11 9 -11 9 -9.1875 7.3125 C-7.16272378 6.09763427 -5.14134904 4.99419777 -3 4 C-3 3.01 -3 2.02 -3 1 C-5.31 1.33 -7.62 1.66 -10 2 C-6.82020798 -2.76968803 -4.78499148 -2.1985096 0 0 Z " fill="#FBFBFB" transform="translate(334,78)"/>
<path d="M0 0 C3.96 0 7.92 0 12 0 C11.67 1.32 11.34 2.64 11 4 C10.34 4 9.68 4 9 4 C9 3.34 9 2.68 9 2 C7.329375 2.2784375 7.329375 2.2784375 5.625 2.5625 C2 3 2 3 0 2 C0 1.34 0 0.68 0 0 Z " fill="#F7F7F7" transform="translate(367,76)"/>
<path d="M0 0 C0.66 0 1.32 0 2 0 C1.690625 0.598125 1.38125 1.19625 1.0625 1.8125 C-0.10209704 4.08956772 -0.10209704 4.08956772 -1 7 C-1.66 7 -2.32 7 -3 7 C-2.25 2.25 -2.25 2.25 0 0 Z " fill="#FEFEFE" transform="translate(340,77)"/>
<path d="M0 0 C0.99 0.495 0.99 0.495 2 1 C1.01 1.495 1.01 1.495 0 2 C0 1.34 0 0.68 0 0 Z " fill="#FFFFFF" transform="translate(242,20)"/>
</svg>
