<?xml version="1.0" encoding="UTF-8"?>
<svg version="1.1" xmlns="http://www.w3.org/2000/svg" width="1156" height="250">
<path d="M0 0 C1.010625 0.66 2.02125 1.32 3.0625 2 C3.0625 2.66 3.0625 3.32 3.0625 4 C4.3825 4.33 5.7025 4.66 7.0625 5 C5.87914063 5.38800781 4.69578125 5.77601562 3.4765625 6.17578125 C-3.23697902 8.41756368 -9.90691038 10.77999527 -16.5625 13.1875 C-17.22780731 13.42789001 -17.89311462 13.66828003 -18.57858276 13.91595459 C-27.51258517 17.16314027 -36.0297826 20.67299209 -44.22265625 25.5390625 C-46.86367806 26.96027424 -48.9832321 27.59887005 -51.9375 28 C-51.9375 28.66 -51.9375 29.32 -51.9375 30 C-51.298125 30.10183594 -50.65875 30.20367187 -50 30.30859375 C-45.85884221 31.24352351 -41.93550261 32.64502987 -37.9375 34.0625 C-37.06246826 34.37050537 -36.18743652 34.67851074 -35.28588867 34.99584961 C-28.02302082 37.5719536 -20.82319113 40.30154633 -13.63208008 43.07055664 C-5.45666581 46.2103283 2.78682871 49.13659604 11.0625 52 C11.0625 52.66 11.0625 53.32 11.0625 54 C-1.60720387 53.03644647 -1.60720387 53.03644647 -6.9375 52 C-5.14868763 53.78881237 -2.65936204 54.53847564 -0.375 55.5625 C1.14287109 56.24505859 1.14287109 56.24505859 2.69140625 56.94140625 C3.47386719 57.29074219 4.25632812 57.64007813 5.0625 58 C5.0625 58.66 5.0625 59.32 5.0625 60 C-0.72249806 61.62353358 -4.57269655 60.1125963 -9.96484375 58.0625 C-10.8308168 57.74474609 -11.69678986 57.42699219 -12.58900452 57.09960938 C-14.42288726 56.42348333 -16.25426751 55.74053598 -18.08325195 55.05126953 C-20.82927388 54.01721877 -23.5824903 53.0048488 -26.33789062 51.99609375 C-35.6899935 48.54186004 -44.80363794 44.82349085 -53.78930664 40.50488281 C-57.69764783 38.63663814 -61.66454101 36.97680387 -65.6875 35.375 C-72.1828295 32.74602674 -78.59118414 29.97440722 -84.9375 27 C-84.3595166 26.71624512 -83.7815332 26.43249023 -83.18603516 26.14013672 C-81.07252484 25.06846536 -79.01753255 23.93435316 -76.9609375 22.7578125 C-66.91319737 17.05626893 -57.18853444 12.31607683 -46.1796875 8.7734375 C-43.9173751 7.99305796 -41.75848453 7.0748203 -39.5625 6.125 C-31.65070106 2.88266467 -23.21608385 1.06617756 -14.9375 -1 C-14.25929199 -1.18022705 -13.58108398 -1.3604541 -12.88232422 -1.54614258 C-8.05557321 -2.67254606 -4.28029322 -2.45207081 0 0 Z " fill="#000000" transform="translate(87.9375,5)"/>
<path d="M0 0 C0.825 0.4125 1.65 0.825 2.5 1.25 C4.4924325 1.62593066 6.4918674 1.96979545 8.5 2.25 C7.84 3.57 7.18 4.89 6.5 6.25 C7.2425 6.8275 7.985 7.405 8.75 8 C11.5 10.25 11.5 10.25 13.26953125 12.1015625 C15.9504471 14.68388075 18.87745354 16.77668243 21.9375 18.875 C22.49759766 19.26945312 23.05769531 19.66390625 23.63476562 20.0703125 C26.80984218 22.26359759 29.85284356 23.98201664 33.5 25.25 C33.995 23.765 33.995 23.765 34.5 22.25 C36.19381304 20.70681128 37.95442502 19.23599728 39.75 17.8125 C40.70390625 17.05066406 41.6578125 16.28882812 42.640625 15.50390625 C43.58421875 14.76011719 44.5278125 14.01632813 45.5 13.25 C46.38171875 12.47527344 47.2634375 11.70054688 48.171875 10.90234375 C48.94015625 10.35707031 49.7084375 9.81179687 50.5 9.25 C51.49 9.58 52.48 9.91 53.5 10.25 C53.5 10.91 53.5 11.57 53.5 12.25 C54.49 12.58 55.48 12.91 56.5 13.25 C57.6875 15.8125 57.6875 15.8125 58.5 18.25 C56.06147609 21.74875169 53.37649482 24.20789435 50 26.75 C46.59882676 29.31755234 44.04024857 31.8025198 41.5 35.25 C37.61562141 39.31062081 33.44762495 42.97155365 29.1875 46.625 C27.85407203 47.77462983 26.52073789 48.92436849 25.1875 50.07421875 C24.55199219 50.62126465 23.91648438 51.16831055 23.26171875 51.73193359 C21.06355418 53.62608372 18.87322303 55.52901022 16.6875 57.4375 C16.10355469 57.94667969 15.51960938 58.45585938 14.91796875 58.98046875 C13.74332478 60.03214724 12.61485786 61.13514214 11.5 62.25 C7.69090105 61.92582137 5.71627837 61.39418558 2.5 59.25 C3.99535489 55.59741183 6.05938608 53.70184421 9.0625 51.1875 C15.99022281 45.11319232 21.90681137 38.255683 26.5 30.25 C25.42685547 29.66605469 25.42685547 29.66605469 24.33203125 29.0703125 C-3.60806099 13.38337843 -3.60806099 13.38337843 -8.5 2.25 C-3.1940874 -0.95822622 -3.1940874 -0.95822622 0 0 Z " fill="#000000" transform="translate(95.5,21.75)"/>
<path d="M0 0 C0.99 0.33 1.98 0.66 3 1 C2.66649954 7.33650872 -0.70715507 11.80206774 -4 17 C-6.86163985 21.22427564 -6.86163985 21.22427564 -8 26 C-7.12134277 25.79640869 -6.24268555 25.59281738 -5.33740234 25.38305664 C-1.65235321 24.96009818 0.02996527 25.42463215 3.3984375 26.87109375 C4.37167969 27.28037109 5.34492188 27.68964844 6.34765625 28.11132812 C7.34667969 28.54896484 8.34570312 28.98660156 9.375 29.4375 C10.39722656 29.87126953 11.41945312 30.30503906 12.47265625 30.75195312 C14.98777058 31.82146436 17.496176 32.90437846 20 34 C19.67 35.32 19.34 36.64 19 38 C18.05125 38.185625 17.1025 38.37125 16.125 38.5625 C11.71235293 39.82451706 8.47884724 42.325547 4.796875 44.9921875 C-4.20497317 51.45440811 -12.10729912 55.83448547 -23 58 C-25.00982188 58.6364436 -27.01713828 59.2839666 -29 60 C-29.33 59.34 -29.66 58.68 -30 58 C-29.29296875 56.30078125 -29.29296875 56.30078125 -28.1875 54.3125 C-26.15792283 50.6563303 -25.1130053 47.0284147 -24 43 C-19.69000894 28.86462018 -13.84694905 15.80274089 -3.2265625 5.2421875 C-0.79516884 3.12564571 -0.79516884 3.12564571 0 0 Z M-10 27 C-11.93391392 29.60334566 -13.01973812 31.210475 -12.9375 34.5 C-13.02500503 38.00020119 -14.76568375 39.41657184 -17 42 C-17 42.66 -17 43.32 -17 44 C-15.68 43.34 -14.36 42.68 -13 42 C-13 43 -13 43 -14.53125 44.55859375 C-15.84245004 45.80995728 -17.15494889 47.05996134 -18.46875 48.30859375 C-20.22371248 49.86684858 -20.22371248 49.86684858 -20 52 C-14.59224162 50.06714886 -9.80985429 47.09386244 -4.8828125 44.18945312 C-1.26904888 42.10642523 1.77551192 40.47030434 6 40 C6 39.34 6 38.68 6 38 C7.32 38 8.64 38 10 38 C10.33 37.34 10.66 36.68 11 36 C11.99 35.67 12.98 35.34 14 35 C11.52175586 33.47492668 10.19427464 32.99119435 7.2421875 33.125 C3.35834289 32.97526141 1.1487538 31.8445498 -2.25 30 C-5.93453775 27.78574513 -5.93453775 27.78574513 -10 27 Z " fill="#000000" transform="translate(176,15)"/>
<path d="M0 0 C0.71816895 -0.00338379 1.43633789 -0.00676758 2.17626953 -0.01025391 C3.35769531 -0.01605469 3.35769531 -0.01605469 4.56298828 -0.02197266 C5.79855469 -0.00457031 5.79855469 -0.00457031 7.05908203 0.01318359 C8.28304688 -0.00421875 8.28304688 -0.00421875 9.53173828 -0.02197266 C13.10870139 -0.00446713 15.52216274 0.02479711 18.69580078 1.76708984 C20.7536966 4.00862991 21.11328406 5.34387094 21.18408203 8.38818359 C19.87158203 11.45068359 19.87158203 11.45068359 18.18408203 14.38818359 C17.79220703 15.17193359 17.40033203 15.95568359 16.99658203 16.76318359 C16.72845703 17.29943359 16.46033203 17.83568359 16.18408203 18.38818359 C16.84408203 19.04818359 17.50408203 19.70818359 18.18408203 20.38818359 C18.97551672 27.2849716 18.97551672 27.2849716 16.12158203 31.26318359 C10.56084839 35.28584197 4.95926582 35.63199216 -1.75341797 35.51318359 C-2.43726563 35.50416016 -3.12111328 35.49513672 -3.82568359 35.48583984 C-5.48925084 35.46257317 -7.15263428 35.42671526 -8.81591797 35.38818359 C-10.05853658 31.66032776 -9.46426961 29.69378478 -8.67138672 25.85693359 C-8.40648437 24.57173828 -8.14158203 23.28654297 -7.86865234 21.96240234 C-7.72645264 21.2938623 -7.58425293 20.62532227 -7.43774414 19.93652344 C-7.00544792 17.89775711 -6.588545 15.85627211 -6.17333984 13.81396484 C-3.43816312 0.7349663 -3.43816312 0.7349663 0 0 Z M2.18408203 6.38818359 C1.85408203 9.35818359 1.52408203 12.32818359 1.18408203 15.38818359 C7.58233466 15.86144729 7.58233466 15.86144729 13.18408203 13.38818359 C14.29595278 9.81415996 14.29595278 9.81415996 13.18408203 6.38818359 C9.55408203 6.38818359 5.92408203 6.38818359 2.18408203 6.38818359 Z M-0.81591797 20.38818359 C-1.14591797 23.35818359 -1.47591797 26.32818359 -1.81591797 29.38818359 C-0.04642702 29.49633584 1.7249569 29.57384442 3.49658203 29.63818359 C4.97578125 29.70779297 4.97578125 29.70779297 6.48486328 29.77880859 C9.26728267 29.62877334 9.26728267 29.62877334 11.10205078 27.68505859 C12.62924394 25.03432979 12.62924394 25.03432979 11.18408203 20.38818359 C7.22408203 20.38818359 3.26408203 20.38818359 -0.81591797 20.38818359 Z " fill="#000000" transform="translate(289.81591796875,35.61181640625)"/>
<path d="M0 0 C-3 2 -3 2 -6 2 C-5.67 3.65 -5.34 5.3 -5 7 C-14.85987261 10.60884226 -14.85987261 10.60884226 -19 10 C-19.99 9.34 -20.98 8.68 -22 8 C-21.979375 9.093125 -21.95875 10.18625 -21.9375 11.3125 C-22 15 -22 15 -23 18 C-21.74316406 17.75443359 -21.74316406 17.75443359 -20.4609375 17.50390625 C-16.79482693 16.97012717 -13.32760615 16.90256975 -9.625 16.9375 C-7.75714844 16.95103516 -7.75714844 16.95103516 -5.8515625 16.96484375 C-4.44003906 16.98224609 -4.44003906 16.98224609 -3 17 C-3.33 18.32 -3.66 19.64 -4 21 C-6.95818845 21.33466374 -9.91653588 21.66779007 -12.875 22 C-13.71675781 22.09539063 -14.55851563 22.19078125 -15.42578125 22.2890625 C-16.23144531 22.37929688 -17.03710938 22.46953125 -17.8671875 22.5625 C-18.98262939 22.68818359 -18.98262939 22.68818359 -20.12060547 22.81640625 C-22 23 -22 23 -24 23 C-24 26.3 -24 29.6 -24 33 C-22.60265625 32.91621094 -21.2053125 32.83242187 -19.765625 32.74609375 C-17.92710115 32.64291129 -16.08855845 32.54006421 -14.25 32.4375 C-12.86941406 32.35338867 -12.86941406 32.35338867 -11.4609375 32.26757812 C-10.57148438 32.21923828 -9.68203125 32.17089844 -8.765625 32.12109375 C-7.94868164 32.0739624 -7.13173828 32.02683105 -6.29003906 31.97827148 C-4.02117925 31.99979905 -2.16679079 32.35387865 0 33 C-0.875 37.875 -0.875 37.875 -2 39 C-3.98757028 39.09983058 -5.9786752 39.13080753 -7.96875 39.1328125 C-9.17917969 39.13410156 -10.38960937 39.13539062 -11.63671875 39.13671875 C-12.91160156 39.13285156 -14.18648437 39.12898438 -15.5 39.125 C-16.77488281 39.12886719 -18.04976562 39.13273437 -19.36328125 39.13671875 C-21.17892578 39.13478516 -21.17892578 39.13478516 -23.03125 39.1328125 C-24.15080078 39.13168457 -25.27035156 39.13055664 -26.42382812 39.12939453 C-29 39 -29 39 -30 38 C-30.10018949 35.9368526 -30.13081291 33.87026517 -30.1328125 31.8046875 C-30.13410156 30.53109375 -30.13539063 29.2575 -30.13671875 27.9453125 C-30.13462402 27.27661133 -30.1325293 26.60791016 -30.13037109 25.91894531 C-30.12507678 23.90421823 -30.13028669 21.8897196 -30.13671875 19.875 C-30.13542969 18.59367187 -30.13414062 17.31234375 -30.1328125 15.9921875 C-30.13168457 14.82026855 -30.13055664 13.64834961 -30.12939453 12.44091797 C-29.99543829 8.87869293 -29.69032275 5.4986191 -29 2 C-20.99012358 -2.00493821 -8.76622953 -0.08510902 0 0 Z M-26 30 C-25 33 -25 33 -25 33 Z " fill="#000000" transform="translate(236,33)"/>
<path d="M0 0 C2.31866681 0.94195839 3.34291886 1.94828372 5 3.8125 C9.77972241 8.84323628 15.39849275 12.75623613 21 16.8125 C20.90234375 18.671875 20.90234375 18.671875 20 20.8125 C17.12890625 22.078125 17.12890625 22.078125 13.5625 23.0625 C12.38816406 23.39765625 11.21382813 23.7328125 10.00390625 24.078125 C7 24.8125 7 24.8125 5 24.8125 C9.75887317 30.75580383 14.47140875 36.56742625 20 41.8125 C19.67 42.4725 19.34 43.1325 19 43.8125 C17.68 42.8225 16.36 41.8325 15 40.8125 C15.61875 41.369375 16.2375 41.92625 16.875 42.5 C19.06106379 44.87895178 19.98785699 46.77607096 21 49.8125 C13.10164616 46.59465214 8.70861753 38.48401515 4 31.8125 C3.86205046 38.87858191 4.25194283 45.78610585 5 52.8125 C2.525 53.3075 2.525 53.3075 0 53.8125 C-3.04321075 42.71523658 -4.69121943 32.19401685 -4.89379883 20.6862793 C-4.93848882 18.32270306 -5.01954763 15.96208635 -5.10351562 13.59960938 C-5.1427341 12.08859494 -5.17992572 10.57752618 -5.21484375 9.06640625 C-5.25205788 8.01351158 -5.25205788 8.01351158 -5.2900238 6.93934631 C-5.31225586 4.98266602 -5.31225586 4.98266602 -5 1.8125 C-2 -0.1875 -2 -0.1875 0 0 Z M1 6.8125 C0.90961901 11.96421623 1.15318867 16.73163204 2 21.8125 C5.96 20.1625 9.92 18.5125 14 16.8125 C11.76464202 12.34178405 10.67035313 11.76012253 6.375 9.5625 C5.37210938 9.04171875 4.36921875 8.5209375 3.3359375 7.984375 C2.56507813 7.59765625 1.79421875 7.2109375 1 6.8125 Z " fill="#000000" transform="translate(250,24.1875)"/>
<path d="M0 0 C3.87130459 2.35547707 6.55515359 4.66546077 8 9 C8.75300085 15.65867897 8.495345 20.77294829 4.48828125 26.28125 C0.68503018 30.67345595 -3.15679322 33.83135864 -9 35 C-13.25341233 35.06711499 -16.21761143 34.47623652 -19.875 32.25 C-23.85483621 28.03605578 -24.46787233 23.97627298 -24.30859375 18.3359375 C-23.4345152 11.71949481 -19.87203558 7.20531588 -14.71875 3.1875 C-10.23447659 0.08927473 -5.41653827 -1.19798672 0 0 Z M-16 12 C-17.69518556 15.69858667 -18.44756101 19.0925376 -17.5078125 23.09765625 C-16.42386788 25.81869247 -15.68390163 27.65804919 -13 29 C-9.892295 29.50590547 -7.84020063 29.5205401 -5.12109375 27.8359375 C-1.6537948 25.01287572 1.1569707 22.53128251 2 18 C2.04044026 12.26870943 2.04044026 12.26870943 -0.34765625 7.26171875 C-2.09548734 5.7254716 -2.09548734 5.7254716 -5.25 5.4375 C-10.25740768 6.18861115 -12.93517448 7.99025508 -16 12 Z " fill="#000000" transform="translate(341,36)"/>
<path d="M0 0 C1.98 0 3.96 0 6 0 C6.27714844 0.62648437 6.55429687 1.25296875 6.83984375 1.8984375 C7.20207031 2.71570312 7.56429688 3.53296875 7.9375 4.375 C8.29714844 5.18710937 8.65679687 5.99921875 9.02734375 6.8359375 C9.6569903 8.23683785 10.31312642 9.62625284 11 11 C11.66 11 12.32 11 13 11 C14.41471603 9.40591302 15.75924099 7.74893135 17.0625 6.0625 C21 1 21 1 22 0 C23.99958364 -0.04080783 26.00045254 -0.04254356 28 0 C26.6136812 3.51257464 24.34585228 5.82103362 21.75830078 8.5168457 C16.91211987 13.34868184 16.91211987 13.34868184 14.83984375 19.5703125 C15.66382727 21.92337986 16.7133719 23.86764439 18 26 C18.59040457 27.51021943 19.15469206 29.03101184 19.6875 30.5625 C20.120625 31.696875 20.55375 32.83125 21 34 C20 35 20 35 17.4375 35.0625 C16.633125 35.041875 15.82875 35.02125 15 35 C14.16180842 33.37750059 13.3295884 31.75191503 12.5 30.125 C12.0359375 29.22007813 11.571875 28.31515625 11.09375 27.3828125 C10 25 10 25 10 23 C7.0981827 25.81646973 4.49709903 28.62966911 2 31.8125 C-0.61408356 34.94127358 -0.61408356 34.94127358 -3.875 35.4375 C-4.57625 35.293125 -5.2775 35.14875 -6 35 C-6 30.92856122 -4.45728433 30.03172741 -1.6875 27.125 C2.85460908 22.52732486 2.85460908 22.52732486 6 17 C5.21426053 14.34474249 4.42142439 12.30197344 3.1875 9.875 C0 3.28064516 0 3.28064516 0 0 Z " fill="#000000" transform="translate(358,36)"/>
<path d="M0 0 C1.86099555 2.4813274 2.08633112 4.1659536 1.76953125 7.2265625 C0.38230563 14.50653282 0.38230563 14.50653282 -3 17 C-5.72507798 17.39078556 -8.23121956 17.13616953 -11 17 C-11 16.34 -11 15.68 -11 15 C-11.66 15 -12.32 15 -13 15 C-13.02698189 13.37509046 -13.04638757 11.75005367 -13.0625 10.125 C-13.07410156 9.22007813 -13.08570313 8.31515625 -13.09765625 7.3828125 C-13 5 -13 5 -12 3 C-11.34 3 -10.68 3 -10 3 C-9.67 2.01 -9.34 1.02 -9 0 C-5.4268387 -1.19105377 -3.59356359 -1.0704232 0 0 Z M-9 4 C-10.1577506 7.47325181 -10.06866652 10.36067448 -10 14 C-7.62625139 14.33425735 -7.62625139 14.33425735 -5 14 C-2.34684029 11.62130509 -2.01896655 10.32875347 -1.8125 6.75 C-1.874375 5.8425 -1.93625 4.935 -2 4 C-5.58327753 2.99782936 -5.58327753 2.99782936 -9 4 Z " fill="#000000" transform="translate(349,76)"/>
<path d="M0 0 C2.31 0 4.62 0 7 0 C7 0.66 7 1.32 7 2 C7.66 2 8.32 2 9 2 C9 3.65 9 5.3 9 7 C8.34 7 7.68 7 7 7 C7 7.66 7 8.32 7 9 C6.01 9 5.02 9 4 9 C4 9.66 4 10.32 4 11 C2.68 11 1.36 11 0 11 C0 11.66 0 12.32 0 13 C2.31 13.33 4.62 13.66 7 14 C7 14.99 7 15.98 7 17 C3.04 17 -0.92 17 -5 17 C-4.67 15.02 -4.34 13.04 -4 11 C-2.68 10.67 -1.36 10.34 0 10 C0 9.34 0 8.68 0 8 C1.32 8 2.64 8 4 8 C4 7.34 4 6.68 4 6 C4.66 6 5.32 6 6 6 C6 5.01 6 4.02 6 3 C4.35 3 2.7 3 1 3 C1 3.66 1 4.32 1 5 C0.01 5 -0.98 5 -2 5 C-2 4.01 -2 3.02 -2 2 C-1.34 2 -0.68 2 0 2 C0 1.34 0 0.68 0 0 Z " fill="#000000" transform="translate(326,76)"/>
<path d="M0 0 C4.29 0 8.58 0 13 0 C12 4 12 4 11 6 C10.34 6 9.68 6 9 6 C8.87625 6.598125 8.7525 7.19625 8.625 7.8125 C8 10 8 10 6 13 C5.34 13 4.68 13 4 13 C4 13.99 4 14.98 4 16 C3.34 16 2.68 16 2 16 C1.67 17.32 1.34 18.64 1 20 C0.01 20 -0.98 20 -2 20 C-1.67 18.35 -1.34 16.7 -1 15 C-0.34 15 0.32 15 1 15 C1 14.01 1 13.02 1 12 C1.66 12 2.32 12 3 12 C3.185625 11.1028125 3.185625 11.1028125 3.375 10.1875 C4 8 4 8 6 5 C6.66 5 7.32 5 8 5 C8 4.34 8 3.68 8 3 C5.36 3 2.72 3 0 3 C0 2.01 0 1.02 0 0 Z " fill="#000000" transform="translate(367,76)"/>
<path d="M0 0 C4.62 0 9.24 0 14 0 C13.67 1.32 13.34 2.64 13 4 C12.34 4 11.68 4 11 4 C11 4.99 11 5.98 11 7 C10.34 7 9.68 7 9 7 C9 7.99 9 8.98 9 10 C8.34 10 7.68 10 7 10 C6.67 11.32 6.34 12.64 6 14 C5.34 14 4.68 14 4 14 C4 14.99 4 15.98 4 17 C3.34 17 2.68 17 2 17 C2 17.99 2 18.98 2 20 C1.01 20 0.02 20 -1 20 C-1 18.68 -1 17.36 -1 16 C-0.34 16 0.32 16 1 16 C1 15.01 1 14.02 1 13 C1.66 13 2.32 13 3 13 C3.33 11.68 3.66 10.36 4 9 C4.66 9 5.32 9 6 9 C6 8.01 6 7.02 6 6 C6.66 6 7.32 6 8 6 C8 5.01 8 4.02 8 3 C5.36 3 2.72 3 0 3 C0 2.01 0 1.02 0 0 Z " fill="#000000" transform="translate(352,76)"/>
<path d="M0 0 C2 1 2 1 2 1 Z " fill="#000000" transform="translate(182,49)"/>
<path d="" fill="#000000" transform="translate(0,0)"/>
<path d="" fill="#000000" transform="translate(0,0)"/>
<path d="" fill="#000000" transform="translate(0,0)"/>
</svg>
